<svg width="21" height="20" viewBox="0 0 21 20" fill="none" xmlns="http://www.w3.org/2000/svg">
<path fill-rule="evenodd" clip-rule="evenodd" d="M6.08222 9.70679C5.89451 9.51926 5.78906 9.26495 5.78906 8.99979C5.78906 8.73462 5.89451 8.48031 6.08222 8.29279L10.0872 4.29279C10.275 4.10532 10.5296 4 10.7951 4C11.0606 4 11.3152 4.10532 11.503 4.29279L15.508 8.29279C15.6904 8.48139 15.7913 8.73399 15.789 8.99619C15.7867 9.25838 15.6814 9.5092 15.4958 9.6946C15.3102 9.88001 15.059 9.98518 14.7965 9.98746C14.534 9.98974 14.2811 9.88894 14.0922 9.70679L11.7964 7.41379V14.9998C11.7964 15.265 11.6909 15.5194 11.5031 15.7069C11.3153 15.8944 11.0607 15.9998 10.7951 15.9998C10.5296 15.9998 10.2749 15.8944 10.0871 15.7069C9.89934 15.5194 9.79386 15.265 9.79386 14.9998V7.41379L7.49799 9.70679C7.31022 9.89426 7.0556 9.99957 6.7901 9.99957C6.5246 9.99957 6.26998 9.89426 6.08222 9.70679Z" fill="#10B981"/>
</svg>
