<svg width="20" height="20" viewBox="0 0 20 20" fill="none" xmlns="http://www.w3.org/2000/svg">
<path d="M1.69482 5.82031L9.78898 10.5045L17.8281 5.84778" stroke="#292D32" stroke-width="1.5" stroke-linecap="round" stroke-linejoin="round"/>
<path d="M9.78906 18.8093V10.4951" stroke="#292D32" stroke-width="1.5" stroke-linecap="round" stroke-linejoin="round"/>
<path d="M18.5983 7.406V12.5944C18.5983 12.6402 18.5983 12.6768 18.5891 12.7227C17.9475 12.1635 17.1225 11.8335 16.2058 11.8335C15.3441 11.8335 14.5466 12.136 13.9141 12.6402C13.0708 13.3094 12.5391 14.3452 12.5391 15.5002C12.5391 16.1877 12.7316 16.8385 13.0708 17.3885C13.1533 17.5352 13.2541 17.6727 13.3641 17.801L11.6866 18.7269C10.6416 19.3135 8.93663 19.3135 7.89163 18.7269L2.99663 16.0135C1.88746 15.3993 0.97998 13.8594 0.97998 12.5944V7.406C0.97998 6.141 1.88746 4.60102 2.99663 3.98685L7.89163 1.2735C8.93663 0.686829 10.6416 0.686829 11.6866 1.2735L16.5816 3.98685C17.6908 4.60102 18.5983 6.141 18.5983 7.406Z" stroke="#292D32" stroke-width="1.5" stroke-linecap="round" stroke-linejoin="round"/>
</svg>
