<svg width="14" height="16" viewBox="0 0 14 16" fill="none" xmlns="http://www.w3.org/2000/svg">
<path d="M12.8068 6.70963H1.19385M9.58094 1.54834V4.12899M4.41965 1.54834V4.12899M4.29062 14.4516H9.70998C10.7939 14.4516 11.3359 14.4516 11.75 14.2406C12.1141 14.0551 12.4102 13.759 12.5958 13.3948C12.8068 12.9808 12.8068 12.4388 12.8068 11.3548V5.93544C12.8068 4.85146 12.8068 4.30948 12.5958 3.89546C12.4102 3.53127 12.1141 3.23518 11.75 3.04962C11.3359 2.83866 10.794 2.83866 9.70998 2.83866H4.29062C3.20665 2.83866 2.66466 2.83866 2.25064 3.04962C1.88646 3.23518 1.59036 3.53127 1.4048 3.89546C1.19385 4.30948 1.19385 4.85146 1.19385 5.93544V11.3548C1.19385 12.4388 1.19385 12.9808 1.4048 13.3948C1.59036 13.759 1.88646 14.0551 2.25064 14.2406C2.66466 14.4516 3.20665 14.4516 4.29062 14.4516Z" stroke="#088158" stroke-width="1.16129" stroke-linecap="round" stroke-linejoin="round"/>
</svg>
