<svg width="31" height="14" viewBox="0 0 31 14" fill="none" xmlns="http://www.w3.org/2000/svg">
<path d="M2.63011 4.58345C2.71928 4.57503 3.10253 4.52396 3.68718 4.44425C3.7201 4.18841 4.00251 3.97936 4.37176 3.94695L6.35939 3.77251C6.64375 3.74749 6.90737 3.83264 7.07119 3.97715C7.50472 3.91715 7.93708 3.8574 8.36699 3.79804C8.39991 3.53364 8.69139 3.31733 9.07256 3.28389L11.121 3.104C11.4161 3.07808 11.6897 3.16712 11.8583 3.31811C12.3748 3.2476 12.8791 3.17891 13.368 3.11268C13.4125 2.84842 13.7078 2.63431 14.0921 2.60061L16.2032 2.41527C16.5068 2.38857 16.788 2.47995 16.9619 2.63496C18.6797 2.41294 19.8685 2.27322 20.1917 2.26765V1.35276C20.1917 1.15641 20.3383 0.990904 20.5332 0.967186C20.5496 0.965242 20.9401 0.918457 21.55 0.918457C22.6855 0.918457 24.8348 1.08876 26.5824 2.21762C26.8532 2.25521 27.6812 2.37937 28.5216 2.60242C30.0686 3.01289 30.7891 3.51848 30.7891 4.19334V6.80464V11.9867C30.7891 12.1865 30.6373 12.3538 30.4383 12.3733L27.2093 12.6889C27.1968 12.69 27.1842 12.6907 27.1715 12.6907H25.342C25.1577 12.8685 24.932 12.9815 24.6819 12.9997L23.587 13.0792C23.0771 13.1163 22.6102 12.7533 22.3695 12.2006C22.3548 12.2822 22.3154 12.3579 22.2541 12.4154C22.1818 12.4833 22.0867 12.5208 21.988 12.5208C21.9801 12.5208 21.9721 12.5205 21.9641 12.52L16.0133 12.1518C15.9316 12.2712 15.821 12.3641 15.6717 12.3741C15.238 12.4031 14.7126 12.3993 14.7126 12.3993L14.7117 12.396C14.2584 12.3681 13.8787 11.9785 13.741 11.4437C13.6777 11.5205 13.5862 11.5736 13.4803 11.5841C13.4674 11.5854 13.4545 11.5861 13.4417 11.5861C13.2586 11.5861 13.0977 11.4568 13.0612 11.2737C13.0403 11.1695 12.8638 10.2393 13.0773 9.65596C13.1059 9.57781 13.1383 9.5051 13.1742 9.43745H11.938V10.7981H11.4663C11.3733 11.3246 11.0974 11.7066 10.7714 11.7066H10.1969C9.87806 11.7066 9.6077 11.3405 9.50907 10.8316C9.41044 11.3406 9.14009 11.7066 8.82126 11.7066H8.24671C7.98128 11.7066 7.74954 11.4524 7.62227 11.074C7.50576 11.5144 7.2551 11.8199 6.964 11.8199H6.38946C6.05728 11.8199 5.77759 11.4229 5.69011 10.8809C5.58552 11.3351 5.33525 11.6554 5.04286 11.6554H4.49086C4.19925 11.6554 3.94963 11.3371 3.84439 10.8849C3.73669 11.2904 3.50573 11.5717 3.23732 11.5717H2.7071C2.33591 11.5717 2.03496 11.0351 2.03496 10.3732C2.03496 9.99436 2.13372 9.65713 2.28769 9.43745H2.14863C1.64083 9.43745 0.789062 9.11356 0.789062 6.94487C0.789452 5.63715 1.74115 4.66821 2.63011 4.58345ZM3.01051 9.42151C3.14867 9.4254 3.34606 9.43512 3.58285 9.43939C3.81964 9.44341 4.09609 9.45261 4.39211 9.45417C4.68813 9.45624 5.00397 9.45832 5.31982 9.46052C5.63567 9.45832 5.95139 9.45611 6.24754 9.45404C6.54356 9.45223 6.81988 9.44328 7.0568 9.43926C7.29359 9.43486 7.49098 9.4254 7.62914 9.42138C7.7673 9.41542 7.84623 9.41192 7.84623 9.41192C7.84623 9.41192 7.7673 9.40855 7.62914 9.40246C7.49098 9.39857 7.29359 9.38911 7.0568 9.3847C6.82001 9.38068 6.54356 9.37174 6.24754 9.36992C5.95152 9.36785 5.63567 9.36565 5.31982 9.36345C5.00397 9.36565 4.68826 9.36785 4.39211 9.36979C4.09609 9.37135 3.81964 9.38055 3.58285 9.38457C3.34606 9.38885 3.14867 9.39857 3.01051 9.40246C2.87235 9.40842 2.79342 9.41192 2.79342 9.41192C2.79342 9.41192 2.87235 9.41555 3.01051 9.42151ZM1.10686 6.99516L1.10893 7.10714C1.11399 7.25593 1.12526 7.40225 1.14211 7.54352C1.17464 7.8258 1.23426 8.08773 1.315 8.30236C1.35583 8.40967 1.40041 8.50532 1.44927 8.58516C1.4958 8.66617 1.54777 8.72967 1.59197 8.77931C1.63902 8.82765 1.67816 8.86226 1.70745 8.88118C1.73596 8.90166 1.75126 8.91255 1.75126 8.91255C1.75126 8.91255 1.73842 8.89894 1.71432 8.87327C1.6884 8.84904 1.65885 8.80679 1.62191 8.75559C1.58717 8.70142 1.5492 8.63364 1.5146 8.55172C1.47869 8.47046 1.44901 8.37416 1.41998 8.26892C1.40054 8.18999 1.38318 8.10394 1.36762 8.01477L18.2737 7.36025C18.1509 6.83055 18.0891 6.16594 18.138 5.32843C18.2077 4.13424 18.481 3.27871 18.951 2.77778C14.9577 3.2476 3.25054 4.91446 2.66679 4.97006C2.66679 4.97006 2.64813 4.97123 2.61314 4.97343C2.57788 4.97512 2.52552 4.97719 2.46085 4.99314C2.42793 4.99897 2.39177 5.00687 2.35392 5.02035C2.31582 5.03305 2.27292 5.0442 2.23119 5.0648C2.14513 5.10084 2.05052 5.1497 1.95616 5.21631C1.90886 5.24949 1.85909 5.28397 1.81295 5.32596C1.78936 5.34657 1.76551 5.36744 1.74115 5.38869C1.71872 5.41189 1.69604 5.43548 1.67297 5.45946C1.57966 5.55459 1.49541 5.66786 1.41778 5.79099C1.34559 5.9171 1.27456 6.05124 1.22804 6.1973C1.20341 6.26988 1.17995 6.3435 1.16492 6.41958C1.15662 6.45755 1.14639 6.49475 1.13991 6.5335L1.12357 6.65131C1.11087 6.7318 1.11178 6.80425 1.10841 6.8789L1.10634 6.9345L1.10686 6.99516ZM13.4424 9.78946C13.2603 10.2871 13.4424 11.1976 13.4424 11.1976C13.4424 9.69238 13.9886 9.46182 14.2678 9.46182C14.547 9.46182 14.9476 9.46182 15.2754 9.46182C15.6031 9.46182 15.9065 9.85024 15.9065 10.3723C15.9065 10.5987 15.9065 10.8888 15.9065 11.145L21.9882 11.4367C21.9882 11.1528 21.9882 10.8301 21.9882 10.5666C21.9882 9.94745 22.413 9.46194 22.8865 9.46194C23.3599 9.46194 23.8212 9.46194 24.246 9.46194C24.6709 9.46194 25.2536 10.2874 25.2536 10.8822C25.2536 10.9296 25.2536 10.9789 25.2536 11.0286C25.6318 11.0654 26.3428 11.126 26.9288 11.126C27.6527 11.126 29.8109 10.9689 30.4005 10.9249V7.73663L27.0593 7.59121L26.8296 7.58616L26.686 10.871L26.5421 7.57981L24.4613 7.53393C24.3882 7.53393 24.3222 7.49997 24.2721 7.44579C24.2708 7.5649 24.2669 7.68246 24.2647 7.79638C24.258 8.06052 24.2475 8.3069 24.2349 8.51816C24.2118 8.94067 24.1792 9.22243 24.1792 9.22243C24.1792 9.22243 24.1465 8.9408 24.1234 8.51816C24.1109 8.3069 24.1005 8.06039 24.0936 7.79638C24.0912 7.66431 24.0855 7.52784 24.0853 7.38929C24.0843 7.25061 24.0831 7.10986 24.0821 6.96898C24.0833 6.82809 24.0843 6.68734 24.0855 6.54866C24.0858 6.40998 24.0913 6.27364 24.0939 6.14157C24.1008 5.87744 24.1111 5.63105 24.1237 5.4198C24.1468 4.99728 24.1792 4.71565 24.1792 4.71565C24.1792 4.53044 24.3054 4.38023 24.4612 4.38023C24.4612 4.38023 25.8843 4.36701 26.3621 4.38023C27.4307 4.40991 29.7837 4.68765 30.4004 4.76231C30.4004 4.56764 30.4004 4.3753 30.4004 4.19385C30.4004 4.17195 30.3983 4.15031 30.3952 4.12892C30.2196 4.09937 29.9547 4.05582 29.6299 4.00502C29.0291 3.91209 28.2265 3.79221 27.4211 3.71185C27.2198 3.6928 27.0183 3.67556 26.8201 3.66649C26.6229 3.65638 26.4246 3.65534 26.2347 3.65016C25.8541 3.64161 25.4988 3.6337 25.1942 3.62683C24.5852 3.61322 24.1792 3.60402 24.1792 3.60402C24.1792 3.60402 24.5852 3.59495 25.1942 3.58121C25.4988 3.57434 25.8541 3.56643 26.2347 3.55788C26.4255 3.55464 26.6207 3.54673 26.823 3.5479C27.0245 3.54803 27.2283 3.55633 27.4319 3.56643C28.2461 3.61089 29.0556 3.695 29.6623 3.76123C29.8893 3.78637 30.0882 3.80945 30.248 3.82837C29.6546 3.13368 27.4888 2.7481 26.7179 2.63055C26.5717 2.61526 26.4234 2.59711 26.2746 2.58428C26.1194 2.57456 25.9641 2.55797 25.8108 2.55382C25.6574 2.54734 25.5065 2.54086 25.3603 2.54151C25.2139 2.53853 25.0727 2.54268 24.9384 2.54566C24.8043 2.54955 24.6775 2.55667 24.5606 2.56406C24.3267 2.57987 24.1325 2.60307 23.9968 2.62122C23.8614 2.64079 23.7844 2.65608 23.7844 2.65608C23.7844 2.65608 23.8602 2.63638 23.9946 2.60891C24.1293 2.58286 24.3224 2.54825 24.5561 2.51883C24.673 2.50457 24.7997 2.49005 24.9342 2.47826C25.0688 2.46737 25.2108 2.45506 25.3582 2.44949C25.5054 2.44029 25.6578 2.43795 25.8127 2.43549C25.9393 2.4316 26.0675 2.43536 26.196 2.43756C24.5912 1.47498 22.6779 1.3074 21.5493 1.3074C21.2957 1.3074 21.0821 1.31583 20.9202 1.32542C20.9363 1.33112 20.9516 1.3363 20.9683 1.34227C21.2809 1.45217 21.6942 1.60861 22.0978 1.78746C22.3001 1.87534 22.4992 1.97111 22.6834 2.06508C22.7762 2.11044 22.8626 2.16137 22.9461 2.2057C23.0293 2.25093 23.105 2.29941 23.1761 2.34101C23.2474 2.38261 23.3087 2.42772 23.3651 2.46401C23.4216 2.50004 23.4683 2.53542 23.5062 2.56497C23.5827 2.62303 23.6264 2.65634 23.6264 2.65634C23.6264 2.65634 23.5801 2.62692 23.4991 2.57534C23.4589 2.54916 23.41 2.51805 23.3509 2.48695C23.2919 2.45558 23.228 2.41618 23.1539 2.3808C23.0797 2.34542 23.0014 2.30394 22.9155 2.2661C22.8292 2.22903 22.7401 2.18613 22.6446 2.1488C22.4551 2.0713 22.2514 1.99315 22.0446 1.92316C21.6321 1.78007 21.2124 1.65993 20.896 1.57737C20.7722 1.54458 20.6649 1.51814 20.5795 1.49753V3.28895L23.416 3.4262L20.5795 3.56345V8.28538C20.5795 8.4098 20.6277 8.52204 20.7047 8.60797L23.4159 8.73511L21.6233 8.8191V9.49888H16.9512C16.9593 9.53012 16.9667 9.56148 16.9744 9.59272C17.0241 9.83767 17.0285 10.0808 17.0252 10.2616C17.0206 10.4425 17.0104 10.562 17.0104 10.562C17.0104 10.562 17.0025 10.4419 16.9797 10.2641C16.9564 10.0869 16.9144 9.85011 16.8344 9.63315C16.8122 9.58015 16.7919 9.52649 16.7648 9.47866C16.7413 9.4285 16.7097 9.38587 16.6815 9.34465C16.6657 9.32599 16.65 9.30758 16.6347 9.28957C16.6191 9.2722 16.601 9.25963 16.5854 9.24499C16.5703 9.22956 16.5529 9.21919 16.5362 9.20986C16.5192 9.20092 16.5053 9.18796 16.4885 9.18303C16.4558 9.17228 16.4263 9.15646 16.4032 9.15672C16.379 9.15361 16.3651 9.14635 16.3335 9.14804C16.281 9.14752 16.2509 9.14726 16.2509 9.14726V9.14687C15.7978 9.14687 14.8587 9.14687 14.4245 9.14687C13.9644 9.14609 13.6245 9.29177 13.4424 9.78946ZM30.387 11.216V11.0951C30.387 11.0551 30.3558 11.024 30.3186 11.0268L29.9423 11.0553C29.9076 11.0579 29.8803 11.0893 29.8803 11.1266V11.2475C29.8803 11.2876 29.9115 11.3187 29.9487 11.3158L30.3249 11.2873C30.3597 11.2846 30.387 11.2532 30.387 11.216ZM27.116 11.4487C27.1163 11.494 27.1575 11.5295 27.2068 11.5266L27.7029 11.496C27.7488 11.4931 27.7845 11.4577 27.7844 11.4154L27.7838 11.2782C27.7836 11.2329 27.7423 11.1974 27.693 11.2004L27.1969 11.2309C27.151 11.2338 27.1153 11.2692 27.1154 11.3115L27.116 11.4487ZM30.1336 7.18386V5.37443L28.0619 5.29576V6.63317C28.9973 6.63317 28.6301 6.99153 29.1458 7.08769C29.6616 7.18386 30.1336 7.18386 30.1336 7.18386ZM26.7346 6.02285C26.7343 5.73266 26.7263 5.44235 26.714 5.22474C26.7086 5.11587 26.6997 5.02528 26.6956 4.96177C26.6904 4.89826 26.6861 4.86198 26.6861 4.86198C26.6861 4.86198 26.6819 4.89826 26.6767 4.96177C26.6725 5.02528 26.6637 5.116 26.6583 5.22474C26.646 5.44248 26.6379 5.73266 26.6377 6.02285C26.638 6.31304 26.6461 6.60336 26.6584 6.82097C26.6638 6.92984 26.6727 7.02043 26.6768 7.08394C26.682 7.14744 26.6861 7.18373 26.6861 7.18373C26.6861 7.18373 26.6904 7.14744 26.6956 7.08394C26.6997 7.02043 26.7084 6.92971 26.714 6.82097C26.7262 6.60336 26.7343 6.31304 26.7346 6.02285ZM19.3616 2.82703C18.8385 3.21727 18.5233 4.08849 18.4498 5.34683C18.3203 7.56452 19.0024 8.48368 19.461 8.84774C19.39 8.76881 19.3237 8.68185 19.2642 8.58801C19.1471 8.40423 19.0538 8.19621 18.9796 7.97653C18.9067 7.75659 18.8472 7.52524 18.8089 7.28781C18.7856 7.16961 18.7743 7.0492 18.7568 6.92906C18.7466 6.80839 18.7313 6.68747 18.7252 6.56629C18.7189 6.44628 18.7094 6.32224 18.7088 6.20301C18.7064 6.08312 18.7019 5.96427 18.7055 5.844C18.7069 5.72424 18.7085 5.60565 18.7168 5.48901C18.72 5.43068 18.7234 5.37262 18.7266 5.31507C18.7322 5.25766 18.7377 5.20063 18.7432 5.14412C18.7641 4.91783 18.8013 4.701 18.8424 4.497C18.8897 4.29417 18.9385 4.10326 19.0027 3.93309C19.0627 3.76175 19.1321 3.60998 19.2007 3.47973C19.2705 3.34999 19.3383 3.24073 19.4012 3.15597C19.4309 3.11242 19.4609 3.07588 19.4868 3.04412C19.5121 3.01185 19.5345 2.98528 19.5539 2.9648C19.5918 2.92294 19.612 2.90065 19.612 2.90065C19.612 2.90065 19.5927 2.92372 19.5564 2.96688C19.5377 2.988 19.5165 3.01548 19.4924 3.04853C19.4679 3.08119 19.4395 3.11852 19.4115 3.1631C19.352 3.24968 19.2887 3.36075 19.2246 3.49191C19.1615 3.62346 19.0985 3.776 19.0456 3.9476C18.9886 4.1179 18.9476 4.30843 18.9085 4.50997C18.8756 4.7128 18.8469 4.92781 18.8349 5.15164C18.8316 5.2075 18.8283 5.26401 18.8249 5.32078C18.8238 5.37767 18.8227 5.43496 18.8216 5.49264C18.8179 5.60799 18.8207 5.7245 18.8238 5.84166C18.8245 5.95844 18.8337 6.07807 18.8404 6.19769C18.8458 6.31823 18.8592 6.43383 18.8701 6.55385C18.8805 6.67283 18.9001 6.79038 18.9144 6.90806C18.9361 7.02445 18.9514 7.14174 18.9783 7.25515C19.024 7.48416 19.0898 7.70371 19.1665 7.90901C19.2443 8.11391 19.3385 8.30327 19.4502 8.46437C19.5521 8.61212 19.6687 8.73369 19.7907 8.82701V2.68589C19.7188 2.69289 19.6396 2.70092 19.5531 2.71013C19.4898 2.74123 19.4255 2.77934 19.3616 2.82703ZM22.7255 11.5553C22.7308 11.6204 22.7412 11.6844 22.7567 11.7474C22.7886 11.8736 22.8425 11.9973 22.9197 12.1067C22.9975 12.2148 23.0983 12.31 23.2183 12.37C23.3367 12.431 23.4761 12.4526 23.5983 12.4377C23.7298 12.4233 23.8405 12.3663 23.9314 12.2967C24.0218 12.2264 24.0903 12.1421 24.1417 12.0587C24.1937 11.9753 24.2241 11.8904 24.2473 11.8153C24.2677 11.7391 24.2795 11.6717 24.2851 11.616C24.2909 11.5601 24.2911 11.5162 24.2896 11.4863C24.2891 11.4565 24.2888 11.4405 24.2888 11.4405C24.2888 11.4405 24.2873 11.4563 24.2843 11.486C24.2827 11.5158 24.276 11.5588 24.2663 11.6133C24.2469 11.7216 24.199 11.8747 24.0957 12.0292C24.0431 12.1051 23.9749 12.1802 23.8894 12.2397C23.8062 12.2977 23.7022 12.3411 23.5972 12.3516C23.5736 12.3453 23.5489 12.3328 23.5217 12.3213C23.4941 12.3099 23.4668 12.2912 23.4373 12.2753C23.4096 12.2553 23.3798 12.236 23.3521 12.2113C23.3226 12.1892 23.2981 12.1593 23.2701 12.1327C23.245 12.1032 23.2188 12.0738 23.1973 12.0405C23.1724 12.0097 23.154 11.9742 23.1334 11.941C23.1165 11.9058 23.0957 11.8729 23.0824 11.8376C23.0669 11.8034 23.0539 11.7693 23.0424 11.7365C23.0294 11.7041 23.0227 11.6719 23.0127 11.6427C23.0038 11.6133 22.999 11.5861 22.9924 11.5617C22.9859 11.5376 22.9823 11.5152 22.9789 11.4971C22.9714 11.461 22.9672 11.4402 22.9672 11.4402C22.9672 11.4402 22.9646 11.4612 22.9601 11.4979C22.9583 11.5163 22.955 11.5384 22.9562 11.5644C22.9568 11.5902 22.955 11.6205 22.9592 11.6523C22.9636 11.6839 22.9644 11.7194 22.9741 11.7552C22.9819 11.7914 22.9899 11.8298 23.0045 11.868C23.0165 11.9068 23.034 11.9453 23.0522 11.9841C23.0736 12.0213 23.0932 12.0605 23.1198 12.0957C23.1445 12.132 23.1746 12.1642 23.2036 12.1962C23.235 12.2262 23.2666 12.255 23.3012 12.2778C23.3337 12.3033 23.3704 12.3204 23.4036 12.3379L23.4037 12.338C23.3551 12.3265 23.3073 12.3099 23.2613 12.2867C23.1572 12.2337 23.0684 12.1484 22.999 12.0506C22.9286 11.9528 22.878 11.8402 22.8476 11.7242C22.8329 11.6658 22.8222 11.6073 22.8157 11.5503C22.8118 11.5215 22.8118 11.4898 22.8097 11.4599C22.8073 11.4329 22.8104 11.4024 22.8104 11.3741C22.82 11.1445 22.8945 10.933 23.0057 10.7847C23.0616 10.711 23.123 10.6515 23.1837 10.6064C23.2451 10.562 23.3056 10.5337 23.3575 10.5162C23.4093 10.4998 23.4517 10.4892 23.4818 10.4871C23.5114 10.4835 23.5271 10.4817 23.5271 10.4817C23.5271 10.4817 23.5112 10.4818 23.4814 10.4819C23.4518 10.481 23.4072 10.4852 23.3523 10.4981C23.2435 10.5239 23.0885 10.5977 22.9629 10.7513C22.8381 10.9025 22.742 11.1226 22.7254 11.3695C22.7245 11.4007 22.7203 11.4304 22.7223 11.4637C22.7233 11.4939 22.7223 11.5233 22.7255 11.5553ZM14.1552 11.1733C14.1582 11.2239 14.1639 11.2746 14.1733 11.3244C14.1924 11.4243 14.2244 11.5241 14.273 11.6173C14.3226 11.7096 14.3908 11.7948 14.4789 11.8568C14.5641 11.9212 14.6841 11.9451 14.7803 11.9298C14.8906 11.9103 14.9709 11.8521 15.034 11.7864C15.0964 11.7203 15.1388 11.6466 15.17 11.5766C15.2023 11.5067 15.2203 11.4387 15.2316 11.3783C15.2435 11.3179 15.2488 11.2646 15.251 11.2208C15.2541 11.177 15.2523 11.1427 15.2511 11.1193C15.2502 11.096 15.2497 11.0836 15.2497 11.0836C15.2497 11.0836 15.2484 11.0959 15.2459 11.1192C15.2441 11.1424 15.2395 11.1762 15.2323 11.2188C15.218 11.3034 15.1887 11.4248 15.1209 11.5527C15.0873 11.6164 15.0431 11.6817 14.9841 11.7361C14.931 11.7866 14.8592 11.8253 14.7896 11.8403C14.7755 11.833 14.761 11.824 14.7453 11.8153C14.727 11.8009 14.7065 11.788 14.6877 11.7697C14.6676 11.7535 14.6505 11.7315 14.6307 11.7116C14.6131 11.6892 14.5953 11.6663 14.5789 11.6411C14.561 11.6173 14.5474 11.5896 14.5322 11.5631C14.5033 11.5089 14.4792 11.4519 14.4592 11.3968C14.4391 11.3417 14.4244 11.2885 14.411 11.2422C14.4004 11.1962 14.3891 11.1568 14.3837 11.128C14.3772 11.0998 14.3727 11.0836 14.3727 11.0836C14.3727 11.0836 14.3692 11.0999 14.3645 11.1287C14.3591 11.1571 14.3562 11.1985 14.3561 11.2496C14.3574 11.2999 14.3626 11.359 14.3775 11.4208C14.3909 11.4831 14.4161 11.547 14.4467 11.6087C14.4647 11.6383 14.4813 11.6685 14.5027 11.6954C14.5216 11.724 14.547 11.7472 14.5693 11.7709C14.6005 11.7994 14.6336 11.8209 14.6665 11.8388C14.6194 11.8291 14.5746 11.8101 14.5329 11.7799C14.4613 11.7285 14.4023 11.6545 14.3589 11.5717C14.3147 11.4891 14.2841 11.3983 14.2656 11.3065C14.2567 11.2601 14.2503 11.2146 14.2456 11.1698C14.2424 11.1212 14.2399 11.0762 14.2418 11.0317C14.2459 10.8522 14.2862 10.6841 14.3562 10.558C14.4236 10.4306 14.516 10.3452 14.5942 10.3118C14.6132 10.3019 14.631 10.296 14.6469 10.2914C14.6626 10.2859 14.6765 10.2824 14.6883 10.2813C14.7113 10.2778 14.7236 10.276 14.7236 10.276C14.7236 10.276 14.7112 10.276 14.6879 10.2761C14.6762 10.2755 14.6619 10.2768 14.6448 10.28C14.6275 10.282 14.6079 10.2861 14.5872 10.2941C14.503 10.321 14.3896 10.3978 14.3092 10.5303C14.2267 10.6603 14.1672 10.8355 14.1564 11.028C14.1527 11.0766 14.1538 11.1262 14.1552 11.1733ZM8.08911 10.71L9.02072 10.7158C9.33125 10.7165 9.64179 10.7126 9.95233 10.7113C10.2629 10.7111 10.5734 10.7037 10.8839 10.698C11.0392 10.6955 11.1945 10.692 11.3497 10.6866C11.505 10.6818 11.6603 10.6775 11.8155 10.6704C11.6603 10.6633 11.505 10.659 11.3497 10.6542C11.1945 10.6487 11.0392 10.6451 10.8839 10.6428C10.5734 10.6371 10.2629 10.6297 9.95233 10.6294C9.64179 10.6281 9.33125 10.6242 9.02072 10.625L8.12799 10.6305C8.12553 10.367 8.11892 10.1035 8.11452 9.84001C8.1127 9.70159 8.10752 9.56317 8.1035 9.42488C8.1 9.30577 8.09598 9.18679 8.09093 9.06768C8.49063 9.06444 8.88515 9.06133 9.26321 9.05835C9.87301 9.05019 10.4421 9.04241 10.9299 9.03593C11.4178 9.02634 11.8242 9.0183 12.1088 9.01273C12.3933 9.00547 12.556 9.00133 12.556 9.00133C12.556 9.00133 12.3933 8.9986 12.1087 8.99394C11.8241 8.99096 11.4177 8.98668 10.9297 8.98149C10.4418 8.97942 9.87262 8.97696 9.26282 8.97424C8.65303 8.97501 8.00253 8.97579 7.35217 8.97657C6.70168 8.98175 6.05132 8.98681 5.44152 8.99173C4.83173 8.9999 4.26263 9.00755 3.77479 9.01416C3.28696 9.02375 2.88051 9.03178 2.5959 9.03749C2.31128 9.04474 2.14876 9.04902 2.14876 9.04902C2.14876 9.04902 2.31141 9.05174 2.59603 9.05641C2.88064 9.05939 3.28722 9.06367 3.77505 9.06885C4.26289 9.07092 4.83212 9.07339 5.44191 9.07598C6.05171 9.0752 6.7022 9.07442 7.35269 9.07364C7.59842 9.0717 7.84351 9.06976 8.08704 9.06781C8.08211 9.18679 8.07797 9.3059 8.0746 9.425C8.07058 9.56342 8.06539 9.70184 8.06358 9.84013C8.05904 10.1168 8.05166 10.3937 8.04958 10.6705L8.04932 10.7099L8.08911 10.71ZM5.96384 10.8127C5.97589 10.8936 5.99611 10.975 6.02786 11.0529C6.0613 11.1296 6.10459 11.2048 6.16913 11.262C6.19985 11.2919 6.23886 11.3138 6.27929 11.3285C6.31908 11.3434 6.36885 11.343 6.40514 11.3363C6.49328 11.3163 6.55238 11.2598 6.59528 11.2015C6.63817 11.1427 6.66721 11.0809 6.68768 11.0223C6.7079 10.9636 6.72138 10.9085 6.72812 10.8588C6.73616 10.8096 6.73992 10.7662 6.74121 10.7304C6.74355 10.6948 6.74212 10.6668 6.7416 10.6476C6.74108 10.6285 6.74082 10.6184 6.74082 10.6184C6.74082 10.6184 6.73927 10.6592 6.7298 10.7294C6.72099 10.7993 6.70129 10.8993 6.65684 11.0103C6.63442 11.0657 6.60357 11.1231 6.56158 11.1751C6.5284 11.2177 6.48174 11.2543 6.43197 11.2742C6.42497 11.2714 6.41875 11.2689 6.41072 11.2654C6.39776 11.2561 6.38194 11.2492 6.36756 11.2365C6.3069 11.1909 6.25065 11.1034 6.2119 11.0088C6.19052 10.962 6.17665 10.9121 6.16213 10.8656C6.14995 10.8184 6.13803 10.7741 6.13103 10.7352C6.12494 10.6966 6.11664 10.6639 6.11431 10.6405C6.11055 10.6173 6.1077 10.604 6.1077 10.604C6.1077 10.604 6.09746 10.6567 6.09875 10.7386C6.10083 10.7791 6.10342 10.8267 6.11262 10.877C6.11884 10.9017 6.1226 10.9282 6.13129 10.9537C6.13919 10.9795 6.14775 11.0056 6.1585 11.031C6.18028 11.0815 6.20685 11.1308 6.2408 11.1711C6.25597 11.1923 6.27593 11.2092 6.29355 11.2254C6.31273 11.2404 6.33088 11.2541 6.34993 11.2637C6.36769 11.2744 6.38544 11.2804 6.40151 11.2846C6.40061 11.2849 6.3997 11.2854 6.39879 11.2855C6.32816 11.2996 6.26011 11.2728 6.20594 11.2212C6.15086 11.1713 6.11185 11.1016 6.08178 11.0298C6.05093 10.9579 6.03032 10.8809 6.01762 10.804C6.00466 10.7283 6.00012 10.6491 6.00246 10.5751C6.0057 10.4261 6.03304 10.287 6.08022 10.1772C6.10394 10.1225 6.13193 10.0754 6.16148 10.0373C6.19052 9.99839 6.2246 9.97233 6.25402 9.95406C6.28435 9.93695 6.31053 9.92827 6.32932 9.92516C6.34812 9.92243 6.35823 9.92088 6.35823 9.92088C6.35888 9.92321 6.31598 9.91349 6.24871 9.94395C6.18274 9.97441 6.10459 10.0513 6.05041 10.1635C5.99689 10.2755 5.95749 10.418 5.95178 10.5733C5.94828 10.6519 5.95152 10.7304 5.96384 10.8127ZM4.04347 10.7151C4.05552 10.796 4.07574 10.8774 4.10749 10.9553C4.14093 11.032 4.18422 11.1072 4.24876 11.1644C4.27948 11.1943 4.31849 11.2162 4.35906 11.2309C4.39884 11.2458 4.44861 11.2455 4.4849 11.2387C4.57303 11.2188 4.63214 11.1622 4.67504 11.1039C4.71794 11.0451 4.74697 10.9833 4.76744 10.9247C4.78753 10.866 4.80114 10.8109 4.80788 10.7612C4.81592 10.712 4.81967 10.6686 4.82097 10.6328C4.8233 10.5972 4.82188 10.5692 4.82136 10.55C4.82084 10.5309 4.82058 10.5208 4.82058 10.5208C4.82058 10.5208 4.81903 10.5616 4.80956 10.6318C4.80075 10.7018 4.78105 10.8017 4.7366 10.9128C4.71417 10.9681 4.68333 11.0255 4.64134 11.0775C4.60129 11.1289 4.54193 11.1729 4.48063 11.1874C4.47622 11.1854 4.47259 11.1841 4.46792 11.1821C4.45496 11.1727 4.43915 11.1659 4.42477 11.1533C4.36411 11.1077 4.30786 11.0202 4.26911 10.9256C4.24772 10.8788 4.23386 10.8289 4.21934 10.7824C4.20716 10.7352 4.19523 10.6909 4.18824 10.652C4.18214 10.6135 4.17385 10.5807 4.17151 10.5572C4.16776 10.534 4.16491 10.5208 4.16491 10.5208C4.16491 10.5208 4.15467 10.5734 4.15596 10.6554C4.15804 10.6959 4.16063 10.7435 4.16983 10.7938C4.17605 10.8185 4.17981 10.845 4.1885 10.8705C4.1964 10.8963 4.20495 10.9223 4.21571 10.9477C4.23749 10.9983 4.26406 11.0475 4.29801 11.0879C4.31318 11.1091 4.33314 11.126 4.35076 11.1422C4.36994 11.1572 4.38809 11.1709 4.40714 11.1805C4.4144 11.1848 4.42165 11.188 4.42878 11.191C4.37642 11.1876 4.32704 11.163 4.2857 11.1238C4.23062 11.0739 4.1916 11.0041 4.16154 10.9323C4.13069 10.8604 4.11021 10.7834 4.09738 10.7065C4.08442 10.6309 4.07988 10.5517 4.08222 10.4777C4.08546 10.3286 4.1128 10.1896 4.15998 10.0798C4.1837 10.0251 4.21169 9.97791 4.24125 9.9398C4.2704 9.90079 4.30436 9.87487 4.33378 9.8566C4.36411 9.83949 4.39029 9.8308 4.40908 9.82769C4.42788 9.82497 4.43798 9.82341 4.43798 9.82341C4.43863 9.82588 4.39573 9.81603 4.32847 9.84662C4.2625 9.87707 4.18435 9.95393 4.13017 10.0662C4.07664 10.1781 4.03724 10.3207 4.03154 10.476C4.02791 10.5543 4.03115 10.6328 4.04347 10.7151ZM2.30364 10.6017C2.31569 10.6826 2.33591 10.764 2.36766 10.8419C2.4011 10.9186 2.44439 10.9938 2.50893 11.051C2.53965 11.0809 2.57866 11.1028 2.6191 11.1175C2.65889 11.1324 2.70865 11.132 2.74495 11.1253C2.83308 11.1053 2.89218 11.0488 2.93508 10.9905C2.97798 10.9317 3.00701 10.8699 3.02748 10.8113C3.0477 10.7526 3.06118 10.6973 3.06792 10.6478C3.07596 10.5986 3.07972 10.5552 3.08101 10.5195C3.08334 10.4839 3.08192 10.4558 3.0814 10.4367C3.08088 10.4177 3.08062 10.4076 3.08062 10.4076C3.08062 10.4076 3.07907 10.4484 3.06961 10.5185C3.06079 10.5885 3.04109 10.6884 2.99664 10.7995C2.97422 10.8548 2.94337 10.9121 2.90138 10.9642C2.86081 11.0162 2.80067 11.0608 2.73872 11.0748C2.73756 11.075 2.73639 11.0748 2.73509 11.075C2.73004 11.0728 2.72576 11.0713 2.72019 11.0688C2.70723 11.0595 2.69142 11.0526 2.67703 11.04C2.61637 10.9944 2.56013 10.9069 2.52137 10.8123C2.50012 10.7655 2.48612 10.7156 2.47161 10.6691C2.45942 10.6219 2.4475 10.5775 2.44063 10.5387C2.43454 10.5002 2.42624 10.4674 2.42391 10.4441C2.42015 10.4209 2.4173 10.4077 2.4173 10.4077C2.4173 10.4077 2.40706 10.4603 2.40836 10.5422C2.41043 10.5828 2.41302 10.6303 2.42223 10.6808C2.42845 10.7055 2.43221 10.732 2.44089 10.7575C2.44879 10.7833 2.45735 10.8093 2.46811 10.8347C2.48988 10.8853 2.51645 10.9345 2.55041 10.9748C2.56557 10.9961 2.58553 11.0129 2.60316 11.0291C2.62234 11.0442 2.64035 11.0579 2.6594 11.0675C2.66549 11.0711 2.67159 11.0736 2.67755 11.0763C2.62934 11.0704 2.58397 11.0472 2.54561 11.0107C2.49053 10.9608 2.45152 10.8911 2.42145 10.8193C2.3906 10.7474 2.37012 10.6704 2.35729 10.5935C2.34433 10.5178 2.3398 10.4387 2.34213 10.3646C2.34537 10.2156 2.37271 10.0765 2.41989 9.96676C2.44361 9.91207 2.47161 9.86489 2.50115 9.82666C2.53032 9.78765 2.56427 9.76172 2.59369 9.74345C2.62402 9.72634 2.6502 9.71766 2.669 9.71455C2.68792 9.71182 2.6979 9.71027 2.6979 9.71027C2.69855 9.71273 2.65565 9.70288 2.58838 9.73347C2.52241 9.76393 2.44426 9.84078 2.39008 9.95302C2.33656 10.065 2.29716 10.2076 2.29145 10.3628C2.28808 10.441 2.29132 10.5195 2.30364 10.6017Z" fill="#292D32"/>
<path d="M28.2429 8.38552C28.324 8.38449 28.4079 8.38021 28.493 8.38164C28.5782 8.38202 28.6646 8.38241 28.7512 8.38293C28.8376 8.38565 28.9241 8.38825 29.0092 8.39084C29.0944 8.39278 29.1781 8.39965 29.2591 8.40367C29.4211 8.41339 29.5724 8.42648 29.7018 8.44126C29.9609 8.46886 30.1333 8.50438 30.1333 8.50438C30.1333 8.50438 29.9598 8.5338 29.6999 8.55233C29.5699 8.56257 29.4184 8.57021 29.2561 8.57436C29.175 8.57553 29.0911 8.57941 29.006 8.57838C28.9208 8.57799 28.8343 8.5776 28.7478 8.57721C28.6614 8.57462 28.5749 8.57203 28.4898 8.56944C28.4046 8.56788 28.321 8.56075 28.2399 8.55673C28.0779 8.54714 27.9266 8.53405 27.7972 8.51915C27.5381 8.49154 27.3657 8.45577 27.3657 8.45577C27.3657 8.45577 27.5392 8.42609 27.7991 8.40756C27.9291 8.39732 28.0806 8.38954 28.2429 8.38552Z" fill="#292D32"/>
<path d="M28.2522 8.90103C28.3328 8.89896 28.4162 8.89364 28.5009 8.89403C28.5855 8.89338 28.6716 8.89274 28.7577 8.89209C28.8437 8.89365 28.9297 8.89533 29.0143 8.89676C29.0989 8.89766 29.1823 8.90349 29.2629 8.90648C29.4241 8.91425 29.5746 8.9254 29.7035 8.93862C29.9614 8.96299 30.1333 8.99642 30.1333 8.99642C30.1333 8.99642 29.9611 9.02805 29.703 9.04969C29.5739 9.06149 29.4233 9.07108 29.262 9.07717C29.1813 9.07924 29.098 9.0843 29.0132 9.0843C28.9286 9.08494 28.8426 9.08559 28.7565 9.08637C28.6704 9.08481 28.5845 9.08326 28.4997 9.0817C28.4151 9.08119 28.3318 9.07509 28.2512 9.07211C28.0899 9.06447 27.9395 9.05332 27.8105 9.0401C27.5526 9.0156 27.3807 8.98204 27.3807 8.98204C27.3807 8.98204 27.553 8.95028 27.8112 8.92851C27.9404 8.91659 28.0908 8.90699 28.2522 8.90103Z" fill="#292D32"/>
<path d="M28.2617 9.41689C28.3419 9.41391 28.4247 9.40756 28.5088 9.40691C28.5931 9.40523 28.6786 9.40354 28.764 9.40186C28.8496 9.40237 28.9351 9.40289 29.0193 9.40341C29.1036 9.40328 29.1864 9.40808 29.2666 9.41002C29.4271 9.41585 29.5769 9.42505 29.7052 9.43672C29.962 9.45784 30.1333 9.48908 30.1333 9.48908C30.1333 9.48908 29.9625 9.52278 29.706 9.54766C29.5778 9.56114 29.4281 9.57255 29.2678 9.58058C29.1876 9.58369 29.1047 9.58978 29.0206 9.59069C28.9364 9.59238 28.8509 9.59419 28.7653 9.59587C28.6798 9.59535 28.5942 9.59484 28.51 9.59445C28.4257 9.59497 28.3429 9.58991 28.2627 9.58797C28.1022 9.5824 27.9524 9.57293 27.8241 9.5614C27.5674 9.54014 27.396 9.50878 27.396 9.50878C27.396 9.50878 27.5668 9.47482 27.8233 9.44994C27.9516 9.43633 28.1013 9.4248 28.2617 9.41689Z" fill="#292D32"/>
<path d="M28.2709 9.93202C28.3506 9.928 28.4329 9.92062 28.5166 9.91893C28.6003 9.91621 28.6853 9.91336 28.7704 9.91064C28.8555 9.91012 28.9405 9.9096 29.0243 9.90895C29.108 9.90766 29.1905 9.91154 29.2704 9.91245C29.4301 9.91621 29.5791 9.9236 29.7069 9.93358C29.9626 9.95159 30.1333 9.98062 30.1333 9.98062C30.1333 9.98062 29.9638 10.0164 29.7091 10.0445C29.5817 10.0596 29.433 10.0728 29.2738 10.0829C29.194 10.087 29.1117 10.094 29.028 10.0961C28.9443 10.0988 28.8593 10.1017 28.7743 10.1045C28.6891 10.105 28.6041 10.1057 28.5204 10.1062C28.4366 10.1078 28.3541 10.1038 28.2742 10.1028C28.1146 10.0992 27.9655 10.0917 27.8377 10.0817C27.582 10.0637 27.4113 10.0344 27.4113 10.0344C27.4113 10.0344 27.5808 9.99838 27.8355 9.97026C27.9628 9.95522 28.1114 9.94187 28.2709 9.93202Z" fill="#292D32"/>
<path d="M28.2804 10.4479C28.3596 10.4428 28.4414 10.4344 28.5247 10.4317C28.6079 10.4279 28.6926 10.424 28.7771 10.4203C28.8617 10.4187 28.9463 10.417 29.0297 10.4155C29.113 10.4131 29.1951 10.416 29.2745 10.4159C29.4334 10.4177 29.5817 10.4233 29.7091 10.4315C29.9636 10.4463 30.1338 10.4733 30.1338 10.4733C30.1338 10.4733 29.9657 10.5113 29.7126 10.5425C29.5861 10.5591 29.4383 10.5742 29.2799 10.5863C29.2008 10.5913 29.119 10.5995 29.0356 10.6026C28.9524 10.6064 28.8678 10.6103 28.7833 10.6142C28.6987 10.6158 28.614 10.6174 28.5307 10.6191C28.4475 10.6217 28.3653 10.6187 28.2859 10.6187C28.1271 10.617 27.9787 10.6114 27.8513 10.603C27.5968 10.5881 27.4265 10.561 27.4265 10.561C27.4265 10.561 27.5946 10.5229 27.8477 10.4916C27.9743 10.475 28.1219 10.4598 28.2804 10.4479Z" fill="#292D32"/>
<path d="M17.0008 10.9907C17.2633 10.9981 17.5698 11.0024 17.8977 11.0148C18.2257 11.027 18.5755 11.04 18.9253 11.0529C19.275 11.0703 19.6247 11.0877 19.9525 11.1039C20.2802 11.1197 20.586 11.1422 20.848 11.1575C21.1102 11.1732 21.3284 11.1924 21.4812 11.2029C21.634 11.2156 21.7212 11.2227 21.7212 11.2227C21.7212 11.2227 21.6336 11.2223 21.4803 11.2217C21.3271 11.219 21.108 11.2191 20.8456 11.2121C20.5831 11.2047 20.2766 11.2006 19.9487 11.188C19.6207 11.1758 19.2709 11.1629 18.9211 11.1498C18.5714 11.1324 18.2217 11.115 17.8939 11.0987C17.5662 11.0826 17.2604 11.0603 16.9984 11.045C16.7363 11.0292 16.518 11.0103 16.3652 10.9998C16.2124 10.9872 16.1252 10.98 16.1252 10.98C16.1252 10.98 16.2128 10.9804 16.3661 10.981C16.5193 10.9837 16.7384 10.9837 17.0008 10.9907Z" fill="#292D32"/>
<path d="M24.566 9.22128C24.594 9.22374 24.6285 9.23243 24.669 9.23994C24.7073 9.25226 24.7513 9.26612 24.7958 9.28855C24.8395 9.31213 24.8882 9.33676 24.9326 9.3724C24.9806 9.40415 25.0239 9.4455 25.0699 9.48736C25.1114 9.53298 25.1592 9.57692 25.1965 9.63005C25.2373 9.68073 25.2742 9.73542 25.3094 9.79103C25.344 9.84702 25.3741 9.90586 25.403 9.96353C25.4298 10.0225 25.4557 10.0807 25.4748 10.1394C25.4969 10.1968 25.5122 10.2545 25.5252 10.3093C25.5411 10.3634 25.5467 10.4168 25.5549 10.465C25.5646 10.5131 25.5634 10.5587 25.5663 10.5982C25.5694 10.6377 25.5685 10.6723 25.5669 10.7009C25.5645 10.7578 25.5616 10.7898 25.5616 10.7898C25.5616 10.7898 25.5558 10.7576 25.548 10.702C25.5449 10.6742 25.5401 10.6406 25.5304 10.6026C25.5208 10.5648 25.5146 10.5216 25.5002 10.476C25.4863 10.4304 25.4749 10.3803 25.4556 10.3294C25.4385 10.2778 25.4185 10.2244 25.3951 10.1701C25.3747 10.1147 25.3447 10.0613 25.319 10.005C25.2904 9.95031 25.2605 9.89471 25.2268 9.84196C25.1942 9.78843 25.1601 9.73568 25.1223 9.68708C25.0871 9.63628 25.046 9.59169 25.0086 9.54659C24.9669 9.50589 24.9299 9.46222 24.8879 9.42904C24.8485 9.39223 24.8067 9.36423 24.7684 9.33676C24.7293 9.31161 24.6908 9.29178 24.6572 9.27377C24.6221 9.2612 24.5915 9.24707 24.5644 9.23994C24.509 9.22932 24.4773 9.22193 24.4773 9.22193C24.4773 9.22193 24.5096 9.22089 24.566 9.22128Z" fill="#292D32"/>
<path d="M21.5761 5.33032C21.5787 5.45124 21.5841 5.57619 21.5845 5.7032C21.5857 5.83021 21.5867 5.95917 21.5879 6.08813C21.5869 6.21709 21.5857 6.34604 21.5847 6.47306C21.5847 6.60007 21.5788 6.72501 21.5764 6.84593C21.5696 7.08778 21.5591 7.31342 21.5465 7.50692C21.5235 7.89393 21.4908 8.15184 21.4908 8.15184C21.4908 8.15184 21.4582 7.89393 21.4351 7.50692C21.4225 7.31342 21.4121 7.08778 21.4054 6.84593C21.4029 6.72501 21.3972 6.60007 21.3971 6.47306C21.3961 6.34604 21.3949 6.21709 21.3939 6.08813C21.395 5.95917 21.3961 5.83021 21.3972 5.7032C21.3976 5.57619 21.4031 5.45124 21.4057 5.33032C21.4125 5.08848 21.4229 4.86283 21.4355 4.66933C21.4585 4.28233 21.4909 4.02441 21.4909 4.02441C21.4909 4.02441 21.5235 4.28233 21.5464 4.66933C21.5589 4.86283 21.5692 5.08848 21.5761 5.33032Z" fill="#292D32"/>
<path d="M22.9361 6.87662C22.9294 7.11276 22.9189 7.33309 22.9064 7.52205C22.8833 7.89985 22.8507 8.15181 22.8507 8.15181C22.8507 8.15181 22.818 7.89985 22.7949 7.52205C22.7824 7.33309 22.772 7.11276 22.7651 6.87662C22.7627 6.75855 22.757 6.63658 22.7568 6.51255C22.7558 6.38852 22.7546 6.26267 22.7536 6.13669C22.7548 6.01072 22.7558 5.88474 22.757 5.76084C22.7574 5.63681 22.7628 5.51485 22.7654 5.39678C22.7723 5.16063 22.7826 4.94017 22.7952 4.75134C22.8183 4.37354 22.8507 4.12158 22.8507 4.12158C22.8507 4.12158 22.8832 4.37341 22.9062 4.75134C22.9187 4.9403 22.929 5.16063 22.936 5.39678C22.9386 5.51485 22.944 5.63681 22.9444 5.76084C22.9456 5.88487 22.9466 6.01072 22.9478 6.13669C22.9466 6.26267 22.9456 6.38852 22.9445 6.51255C22.9444 6.63658 22.9387 6.75855 22.9361 6.87662Z" fill="#292D32"/>
<path d="M20.9301 9.73647C20.7279 9.74074 20.492 9.74891 20.2393 9.75189C19.9865 9.75604 19.7169 9.75668 19.4474 9.75772C19.1778 9.75668 18.9082 9.75604 18.6555 9.75202C18.4027 9.74917 18.1669 9.74087 17.9647 9.73659C17.7625 9.73232 17.594 9.7226 17.4761 9.71871C17.3581 9.71275 17.2907 9.70925 17.2907 9.70925C17.2907 9.70925 17.3581 9.70588 17.4761 9.69979C17.594 9.6959 17.7625 9.68618 17.9647 9.6819C18.1669 9.67762 18.4027 9.66933 18.6555 9.66648C18.9082 9.66233 19.1778 9.66168 19.4474 9.66064C19.7169 9.66168 19.9865 9.66246 20.2393 9.66648C20.492 9.66959 20.7279 9.67762 20.9301 9.6819C21.1322 9.68631 21.3007 9.69577 21.4187 9.69966C21.5366 9.70562 21.604 9.70912 21.604 9.70912C21.604 9.70912 21.5366 9.71249 21.4187 9.71858C21.3007 9.7226 21.1322 9.73206 20.9301 9.73647Z" fill="#292D32"/>
<path d="M1.29469 7.10323L1.2943 6.9941V6.9433L1.29716 6.8877C1.30066 6.82808 1.30338 6.76756 1.31038 6.71066L17.9781 5.37598C17.9781 5.37598 17.881 6.33091 18.0591 7.22118L1.37194 7.90498C1.37194 7.90498 1.33513 7.73066 1.30869 7.49037C1.30001 7.36465 1.29845 7.23504 1.29469 7.10323Z" fill="#292D32"/>
<path d="M15.1733 5.29605C14.4185 5.36798 13.5386 5.46039 12.5947 5.54399C11.6506 5.62797 10.6437 5.71753 9.6368 5.80722C8.62912 5.88809 7.62143 5.96897 6.67686 6.04492C5.7323 6.12164 4.84929 6.17776 4.09317 6.23375C3.33692 6.2891 2.70574 6.32318 2.26443 6.3526C1.82273 6.37787 1.57039 6.39239 1.57039 6.39239C1.57039 6.39239 1.82157 6.36426 2.26132 6.31501C2.70133 6.26991 3.32927 6.19746 4.08397 6.12489C4.83879 6.05308 5.71856 5.96015 6.66261 5.87695C7.60666 5.79296 8.61356 5.7034 9.62047 5.61385C10.6282 5.53297 11.6358 5.4521 12.5805 5.37641C13.5252 5.3002 14.4081 5.24356 15.1642 5.18757C15.9205 5.13236 16.5515 5.09814 16.993 5.06859C17.4347 5.04319 17.687 5.02881 17.687 5.02881C17.687 5.02881 17.4357 5.05693 16.9961 5.10618C16.5559 5.15115 15.928 5.22334 15.1733 5.29605Z" fill="#292D32"/>
<path d="M20.8548 10.1613C20.8671 10.2546 20.8751 10.3789 20.8755 10.5033C20.8752 10.6276 20.8672 10.752 20.8549 10.8452C20.8433 10.9385 20.827 11.0006 20.827 11.0006C20.827 11.0006 20.8107 10.9384 20.7992 10.8452C20.7868 10.7519 20.7788 10.6276 20.7785 10.5033C20.7789 10.3789 20.787 10.2546 20.7993 10.1613C20.8108 10.0679 20.827 10.0059 20.827 10.0059C20.827 10.0059 20.8432 10.0679 20.8548 10.1613Z" fill="#292D32"/>
<path d="M19.2078 10.1476C19.2201 10.2327 19.2283 10.3461 19.2285 10.4596C19.2283 10.573 19.2202 10.6864 19.2079 10.7714C19.1964 10.8565 19.18 10.9132 19.18 10.9132C19.18 10.9132 19.1637 10.8565 19.1522 10.7714C19.1399 10.6864 19.1318 10.573 19.1316 10.4596C19.132 10.3462 19.14 10.2328 19.1523 10.1476C19.1638 10.0626 19.18 10.0059 19.18 10.0059C19.18 10.0059 19.1962 10.0626 19.2078 10.1476Z" fill="#292D32"/>
<path d="M17.7268 10.1362C17.7391 10.2145 17.7473 10.3189 17.7476 10.4231C17.7473 10.5274 17.7393 10.6317 17.727 10.7099C17.7154 10.7882 17.6991 10.8403 17.6991 10.8403C17.6991 10.8403 17.6828 10.7882 17.6712 10.7099C17.6589 10.6316 17.6509 10.5273 17.6506 10.4231C17.651 10.3187 17.659 10.2144 17.6713 10.1362C17.6829 10.058 17.6991 10.0059 17.6991 10.0059C17.6991 10.0059 17.7154 10.0581 17.7268 10.1362Z" fill="#292D32"/>
<path d="M24.7717 7.99087C24.7103 7.98828 24.649 7.97804 24.6034 7.96405C24.5576 7.95083 24.5275 7.93333 24.5275 7.93333C24.5275 7.93333 24.5589 7.91817 24.6054 7.90832C24.652 7.89769 24.7138 7.89199 24.7754 7.89393C24.8368 7.89652 24.8981 7.90689 24.9437 7.92089C24.9895 7.93411 25.0195 7.95148 25.0195 7.95148C25.0195 7.95148 24.9882 7.96651 24.9416 7.97636C24.8951 7.98699 24.8333 7.99282 24.7717 7.99087Z" fill="#292D32"/>
</svg>
