<svg width="23" height="22" viewBox="0 0 23 22" fill="none" xmlns="http://www.w3.org/2000/svg">
<path opacity="0.34" d="M8.4707 11.0001L10.6799 13.2184L15.1074 8.78174" stroke="#292D32" stroke-width="1.5" stroke-linecap="round" stroke-linejoin="round"/>
<path d="M10.6432 2.24596C11.2757 1.70512 12.3115 1.70512 12.9532 2.24596L14.4015 3.49262C14.6765 3.73096 15.1899 3.92346 15.5565 3.92346H17.1149C18.0865 3.92346 18.884 4.72096 18.884 5.69262V7.25096C18.884 7.60846 19.0765 8.13096 19.3149 8.40596L20.5615 9.85429C21.1024 10.4868 21.1024 11.5226 20.5615 12.1643L19.3149 13.6126C19.0765 13.8876 18.884 14.401 18.884 14.7676V16.326C18.884 17.2976 18.0865 18.0951 17.1149 18.0951H15.5565C15.199 18.0951 14.6765 18.2876 14.4015 18.526L12.9532 19.7726C12.3207 20.3135 11.2849 20.3135 10.6432 19.7726L9.19487 18.526C8.91987 18.2876 8.40654 18.0951 8.03987 18.0951H6.45404C5.48237 18.0951 4.68487 17.2976 4.68487 16.326V14.7585C4.68487 14.401 4.49237 13.8876 4.2632 13.6126L3.0257 12.1551C2.49404 11.5226 2.49404 10.496 3.0257 9.86346L4.2632 8.40596C4.49237 8.13096 4.68487 7.61762 4.68487 7.26012V5.68346C4.68487 4.71179 5.48237 3.91429 6.45404 3.91429H8.03987C8.39737 3.91429 8.91987 3.72179 9.19487 3.48346L10.6432 2.24596Z" stroke="#292D32" stroke-width="1.5" stroke-linecap="round" stroke-linejoin="round"/>
</svg>
