<svg width="21" height="22" viewBox="0 0 21 22" fill="none" xmlns="http://www.w3.org/2000/svg">
<path d="M7.22961 20.3977H3.69787C1.94074 20.3977 1.09277 19.5847 1.09277 17.9062V4.09399C1.09277 2.41554 1.94948 1.60254 3.69787 1.60254H7.22961C8.98674 1.60254 9.83471 2.41554 9.83471 4.09399V17.9062C9.83471 19.5847 8.978 20.3977 7.22961 20.3977ZM3.69787 2.91383C2.58764 2.91383 2.40406 3.21106 2.40406 4.09399V17.9062C2.40406 18.7892 2.58764 19.0864 3.69787 19.0864H7.22961C8.33984 19.0864 8.52342 18.7892 8.52342 17.9062V4.09399C8.52342 3.21106 8.33984 2.91383 7.22961 2.91383H3.69787Z" fill="#A3AED0"/>
<path d="M17.2828 12.53H13.7511C11.994 12.53 11.146 11.717 11.146 10.0385V4.09399C11.146 2.41554 12.0027 1.60254 13.7511 1.60254H17.2828C19.04 1.60254 19.8879 2.41554 19.8879 4.09399V10.0385C19.8879 11.717 19.0312 12.53 17.2828 12.53ZM13.7511 2.91383C12.6409 2.91383 12.4573 3.21106 12.4573 4.09399V10.0385C12.4573 10.9214 12.6409 11.2187 13.7511 11.2187H17.2828C18.3931 11.2187 18.5766 10.9214 18.5766 10.0385V4.09399C18.5766 3.21106 18.3931 2.91383 17.2828 2.91383H13.7511Z" fill="#A3AED0"/>
<path d="M17.2828 20.3978H13.7511C11.994 20.3978 11.146 19.5848 11.146 17.9063V16.3328C11.146 14.6543 12.0027 13.8413 13.7511 13.8413H17.2828C19.04 13.8413 19.8879 14.6543 19.8879 16.3328V17.9063C19.8879 19.5848 19.0312 20.3978 17.2828 20.3978ZM13.7511 15.1526C12.6409 15.1526 12.4573 15.4498 12.4573 16.3328V17.9063C12.4573 18.7892 12.6409 19.0865 13.7511 19.0865H17.2828C18.3931 19.0865 18.5766 18.7892 18.5766 17.9063V16.3328C18.5766 15.4498 18.3931 15.1526 17.2828 15.1526H13.7511Z" fill="#A3AED0"/>
</svg>
