<svg width="19" height="18" viewBox="0 0 19 18" fill="none" xmlns="http://www.w3.org/2000/svg">
<path d="M6.90906 4.9873H12.6616C13.1416 4.9873 13.5316 5.3773 13.5316 5.8573V6.8173C13.5316 7.1698 13.3141 7.6048 13.0966 7.8223L11.2216 9.4798C10.9591 9.6973 10.7866 10.1323 10.7866 10.4848V12.3598C10.7866 12.6223 10.6141 12.9673 10.3966 13.1023L9.78906 13.4848C9.21906 13.8373 8.43906 13.4398 8.43906 12.7423V10.4323C8.43906 10.1248 8.26656 9.7348 8.08656 9.5173L6.42906 7.7698C6.21156 7.5598 6.03906 7.1623 6.03906 6.8998V5.9023C6.03906 5.3773 6.42906 4.9873 6.90906 4.9873Z" stroke="#292D32" stroke-width="1.5" stroke-miterlimit="10" stroke-linecap="round" stroke-linejoin="round"/>
<path d="M2.28906 9.69V11.25C2.28906 15 3.78906 16.5 7.53906 16.5H12.0391C15.7891 16.5 17.2891 15 17.2891 11.25V6.75C17.2891 3 15.7891 1.5 12.0391 1.5H7.53906C3.78906 1.5 2.28906 3 2.28906 6.75" stroke="#292D32" stroke-width="1.5" stroke-linecap="round" stroke-linejoin="round"/>
</svg>
