<svg width="17" height="16" viewBox="0 0 17 16" fill="none" xmlns="http://www.w3.org/2000/svg">
<path fill-rule="evenodd" clip-rule="evenodd" d="M2.78906 7.99984C2.78906 7.26384 3.3864 6.6665 4.1224 6.6665C4.8584 6.6665 5.45573 7.26384 5.45573 7.99984C5.45573 8.73584 4.8584 9.33317 4.1224 9.33317C3.3864 9.33317 2.78906 8.73584 2.78906 7.99984ZM8.78906 6.6665C8.05306 6.6665 7.45573 7.26384 7.45573 7.99984C7.45573 8.73584 8.05306 9.33317 8.78906 9.33317C9.52506 9.33317 10.1224 8.73584 10.1224 7.99984C10.1224 7.26384 9.52506 6.6665 8.78906 6.6665ZM13.4557 6.6665C12.7197 6.6665 12.1224 7.26384 12.1224 7.99984C12.1224 8.73584 12.7197 9.33317 13.4557 9.33317C14.1917 9.33317 14.7891 8.73584 14.7891 7.99984C14.7891 7.26384 14.1917 6.6665 13.4557 6.6665Z" fill="black"/>
</svg>
