<svg width="16" height="21" viewBox="0 0 16 21" fill="none" xmlns="http://www.w3.org/2000/svg">
<path d="M8 0.25C2.67 4.8 0 8.73 0 12.05C0 17.03 3.8 20.25 8 20.25C12.2 20.25 16 17.03 16 12.05C16 8.73 13.33 4.8 8 0.25ZM8 18.25C4.65 18.25 2 15.68 2 12.05C2 9.71 3.95 6.61 8 2.91C12.05 6.61 14 9.7 14 12.05C14 15.68 11.35 18.25 8 18.25ZM3.83 12.25C4.2 12.25 4.5 12.51 4.57 12.87C4.98 15.09 6.85 15.85 8.21 15.74C8.64 15.72 9 16.06 9 16.49C9 16.89 8.68 17.22 8.28 17.24C6.15 17.37 3.66 16.15 3.09 13.12C3.01 12.67 3.37 12.25 3.83 12.25Z" fill="#006970"/>
</svg>
