<svg width="8" height="23" viewBox="0 0 8 23" fill="none" xmlns="http://www.w3.org/2000/svg">
<g clip-path="url(#clip0_1127_213)">
<path fill-rule="evenodd" clip-rule="evenodd" d="M2.62338 3.58442C2.62338 4.57422 3.42578 5.37662 4.41558 5.37662C5.40539 5.37662 6.20779 4.57422 6.20779 3.58442C6.20779 2.59461 5.40539 1.79221 4.41558 1.79221C3.42578 1.79221 2.62338 2.59461 2.62338 3.58442ZM3.51948 7.05592C1.97352 6.65799 0.831169 5.25461 0.831169 3.58442C0.831169 1.6048 2.43597 0 4.41558 0C6.3952 0 8 1.6048 8 3.58442C8 5.25461 6.85767 6.65799 5.31169 7.05592L5.31169 15.7714C5.31169 15.7915 5.31103 15.8114 5.30973 15.8312H6.20779H8V17.6234V21.2078V23H6.20779H2.62338H0.831169L0.831169 21.2078V17.6234V15.8312H2.62338H3.52144C3.52014 15.8114 3.51948 15.7915 3.51948 15.7714L3.51948 7.05592ZM6.20779 21.2078L6.20779 17.6234H2.62338V21.2078H6.20779Z" fill="#546070"/>
</g>
<defs>
<clipPath id="clip0_1127_213">
<rect width="23" height="7.16883" fill="white" transform="matrix(0 1 -1 0 8 0)"/>
</clipPath>
</defs>
</svg>
