<svg width="104" height="42" viewBox="0 0 104 42" fill="none" xmlns="http://www.w3.org/2000/svg">
<path d="M22.3908 18.6627C21.1058 20.0294 20.1757 21.1156 19.911 22.6532C19.6887 23.9447 19.9606 25.2678 20.6765 26.3787C21.0331 26.9322 21.4852 27.4169 22.0187 27.8232C19.2828 26.8661 15.0211 24.3505 15.2327 19.6352C15.3662 16.6603 17.6468 14.2432 20.6247 14.2432C21.0779 14.2432 21.518 14.2993 21.9385 14.4047C22.5045 14.5466 22.9914 14.9169 23.2613 15.4343C23.3296 15.5654 23.3855 15.7067 23.4251 15.8575C23.6538 16.7298 23.2962 17.6998 22.3908 18.6627ZM22.8139 16.0178C22.7877 15.9178 22.7497 15.8198 22.701 15.7265C22.5182 15.3761 22.1843 15.1178 21.7849 15.0176C21.4075 14.923 21.0171 14.8751 20.6247 14.8751C19.3705 14.8751 18.1943 15.3692 17.3128 16.2665C16.4368 17.158 15.9222 18.3645 15.8639 19.6636C15.8612 19.7246 15.8596 19.7851 15.8584 19.8452C15.9657 18.6718 16.4566 17.5896 17.256 16.7761C18.1166 15.9001 19.2649 15.4177 20.4893 15.4177C20.8725 15.4177 21.2536 15.4645 21.622 15.5569C22.012 15.6546 22.338 15.9069 22.5164 16.2489C22.5639 16.34 22.601 16.4357 22.6266 16.5333C22.6918 16.7818 22.6827 17.0314 22.6241 17.2737C22.8229 16.8793 22.9264 16.4469 22.8139 16.0178Z" fill="#088158"/>
<path d="M25.1236 16.663C28.2745 21.5395 21.015 24.8112 23.0299 27.8232C21.7098 27.0401 20.2916 24.8918 20.8324 22.8032C21.5804 19.9143 24.6518 19.3068 25.1236 16.663Z" fill="black"/>
<path d="M36.3365 21.2034C36.3365 29.6375 29.4993 36.4747 21.0652 36.4747C12.6311 36.4747 5.79395 29.6375 5.79395 21.2034C5.79395 12.7693 12.6311 5.93213 21.0652 5.93213C29.4993 5.93213 36.3365 12.7693 36.3365 21.2034ZM9.42877 21.2034C9.42877 27.6301 14.6386 32.8399 21.0652 32.8399C27.4919 32.8399 32.7017 27.6301 32.7017 21.2034C32.7017 14.7768 27.4919 9.56695 21.0652 9.56695C14.6386 9.56695 9.42877 14.7768 9.42877 21.2034Z" fill="url(#paint0_angular_34_4731)"/>
<mask id="path-4-outside-1_34_4731" maskUnits="userSpaceOnUse" x="42.2236" y="8.73608" width="60" height="24" fill="black">
<rect fill="white" x="42.2236" y="8.73608" width="60" height="24"/>
<path d="M43.3893 31.7361V9.77886H51.6233C53.3101 9.77886 54.7253 10.0719 55.8689 10.658C57.0197 11.2441 57.8881 12.0661 58.4742 13.1239C59.0675 14.1746 59.3641 15.4004 59.3641 16.8013C59.3641 18.2094 59.0639 19.4316 58.4635 20.468C57.8702 21.4972 56.9947 22.2942 55.8368 22.8588C54.6789 23.4164 53.2565 23.6951 51.5697 23.6951H45.7051V20.3929H51.0336C52.02 20.3929 52.8277 20.2571 53.4566 19.9855C54.0856 19.7068 54.5502 19.3029 54.8504 18.774C55.1578 18.238 55.3114 17.5804 55.3114 16.8013C55.3114 16.0222 55.1578 15.3575 54.8504 14.8071C54.5431 14.2496 54.0749 13.8279 53.4459 13.542C52.8169 13.249 52.0057 13.1025 51.0122 13.1025H47.3669V31.7361H43.3893ZM54.7325 21.7867L60.1682 31.7361H55.7296L50.3903 21.7867H54.7325ZM60.6694 9.77886H65.1616L70.533 19.4924H70.7474L76.1188 9.77886H80.611L72.6236 23.545V31.7361H68.6568V23.545L60.6694 9.77886ZM101.81 20.7575C101.81 23.1233 101.367 25.1496 100.48 26.8364C99.6011 28.5161 98.4003 29.8027 96.8779 30.6961C95.3626 31.5896 93.6437 32.0363 91.721 32.0363C89.7983 32.0363 88.0757 31.5896 86.5533 30.6961C85.038 29.7955 83.8372 28.5054 82.9509 26.8257C82.0718 25.1389 81.6322 23.1162 81.6322 20.7575C81.6322 18.3916 82.0718 16.3689 82.9509 14.6892C83.8372 13.0024 85.038 11.7123 86.5533 10.8188C88.0757 9.92538 89.7983 9.47866 91.721 9.47866C93.6437 9.47866 95.3626 9.92538 96.8779 10.8188C98.4003 11.7123 99.6011 13.0024 100.48 14.6892C101.367 16.3689 101.81 18.3916 101.81 20.7575ZM97.8107 20.7575C97.8107 19.0921 97.5498 17.6876 97.028 16.544C96.5134 15.3932 95.7986 14.5248 94.8837 13.9387C93.9689 13.3455 92.9146 13.0489 91.721 13.0489C90.5273 13.0489 89.4731 13.3455 88.5582 13.9387C87.6433 14.5248 86.925 15.3932 86.4032 16.544C85.8886 17.6876 85.6313 19.0921 85.6313 20.7575C85.6313 22.4228 85.8886 23.8309 86.4032 24.9817C86.925 26.1253 87.6433 26.9937 88.5582 27.5869C89.4731 28.173 90.5273 28.4661 91.721 28.4661C92.9146 28.4661 93.9689 28.173 94.8837 27.5869C95.7986 26.9937 96.5134 26.1253 97.028 24.9817C97.5498 23.8309 97.8107 22.4228 97.8107 20.7575Z"/>
</mask>
<path d="M43.3893 31.7361V9.77886H51.6233C53.3101 9.77886 54.7253 10.0719 55.8689 10.658C57.0197 11.2441 57.8881 12.0661 58.4742 13.1239C59.0675 14.1746 59.3641 15.4004 59.3641 16.8013C59.3641 18.2094 59.0639 19.4316 58.4635 20.468C57.8702 21.4972 56.9947 22.2942 55.8368 22.8588C54.6789 23.4164 53.2565 23.6951 51.5697 23.6951H45.7051V20.3929H51.0336C52.02 20.3929 52.8277 20.2571 53.4566 19.9855C54.0856 19.7068 54.5502 19.3029 54.8504 18.774C55.1578 18.238 55.3114 17.5804 55.3114 16.8013C55.3114 16.0222 55.1578 15.3575 54.8504 14.8071C54.5431 14.2496 54.0749 13.8279 53.4459 13.542C52.8169 13.249 52.0057 13.1025 51.0122 13.1025H47.3669V31.7361H43.3893ZM54.7325 21.7867L60.1682 31.7361H55.7296L50.3903 21.7867H54.7325ZM60.6694 9.77886H65.1616L70.533 19.4924H70.7474L76.1188 9.77886H80.611L72.6236 23.545V31.7361H68.6568V23.545L60.6694 9.77886ZM101.81 20.7575C101.81 23.1233 101.367 25.1496 100.48 26.8364C99.6011 28.5161 98.4003 29.8027 96.8779 30.6961C95.3626 31.5896 93.6437 32.0363 91.721 32.0363C89.7983 32.0363 88.0757 31.5896 86.5533 30.6961C85.038 29.7955 83.8372 28.5054 82.9509 26.8257C82.0718 25.1389 81.6322 23.1162 81.6322 20.7575C81.6322 18.3916 82.0718 16.3689 82.9509 14.6892C83.8372 13.0024 85.038 11.7123 86.5533 10.8188C88.0757 9.92538 89.7983 9.47866 91.721 9.47866C93.6437 9.47866 95.3626 9.92538 96.8779 10.8188C98.4003 11.7123 99.6011 13.0024 100.48 14.6892C101.367 16.3689 101.81 18.3916 101.81 20.7575ZM97.8107 20.7575C97.8107 19.0921 97.5498 17.6876 97.028 16.544C96.5134 15.3932 95.7986 14.5248 94.8837 13.9387C93.9689 13.3455 92.9146 13.0489 91.721 13.0489C90.5273 13.0489 89.4731 13.3455 88.5582 13.9387C87.6433 14.5248 86.925 15.3932 86.4032 16.544C85.8886 17.6876 85.6313 19.0921 85.6313 20.7575C85.6313 22.4228 85.8886 23.8309 86.4032 24.9817C86.925 26.1253 87.6433 26.9937 88.5582 27.5869C89.4731 28.173 90.5273 28.4661 91.721 28.4661C92.9146 28.4661 93.9689 28.173 94.8837 27.5869C95.7986 26.9937 96.5134 26.1253 97.028 24.9817C97.5498 23.8309 97.8107 22.4228 97.8107 20.7575Z" fill="#088158"/>
<path d="M43.3893 31.7361H43.0709V32.0545H43.3893V31.7361ZM43.3893 9.77886V9.46046H43.0709V9.77886H43.3893ZM55.8689 10.658L55.7237 10.9414L55.7244 10.9417L55.8689 10.658ZM58.4742 13.1239L58.1957 13.2782L58.197 13.2804L58.4742 13.1239ZM58.4635 20.468L58.188 20.3084L58.1876 20.309L58.4635 20.468ZM55.8368 22.8588L55.9749 23.1457L55.9763 23.145L55.8368 22.8588ZM45.7051 23.6951H45.3867V24.0135H45.7051V23.6951ZM45.7051 20.3929V20.0746H45.3867V20.3929H45.7051ZM53.4566 19.9855L53.5829 20.2779L53.5856 20.2766L53.4566 19.9855ZM54.8504 18.774L54.5742 18.6157L54.5735 18.6169L54.8504 18.774ZM54.8504 14.8071L54.5716 14.9609L54.5724 14.9624L54.8504 14.8071ZM53.4459 13.542L53.3114 13.8307L53.3142 13.8319L53.4459 13.542ZM47.3669 13.1025V12.7841H47.0485V13.1025H47.3669ZM47.3669 31.7361V32.0545H47.6853V31.7361H47.3669ZM54.7325 21.7867L55.0119 21.6341L54.9213 21.4683H54.7325V21.7867ZM60.1682 31.7361V32.0545H60.7049L60.4476 31.5834L60.1682 31.7361ZM55.7296 31.7361L55.449 31.8866L55.5391 32.0545H55.7296V31.7361ZM50.3903 21.7867V21.4683H49.8581L50.1098 21.9373L50.3903 21.7867ZM43.7077 31.7361V9.77886H43.0709V31.7361H43.7077ZM43.3893 10.0972H51.6233V9.46046H43.3893V10.0972ZM51.6233 10.0972C53.2748 10.0972 54.6369 10.3843 55.7237 10.9414L56.0141 10.3747C54.8138 9.75947 53.3454 9.46046 51.6233 9.46046V10.0972ZM55.7244 10.9417C56.8227 11.5011 57.6425 12.2797 58.1957 13.2782L58.7527 12.9696C58.1337 11.8524 57.2167 10.9871 56.0134 10.3743L55.7244 10.9417ZM58.197 13.2804C58.7592 14.2762 59.0457 15.4463 59.0457 16.8013H59.6825C59.6825 15.3545 59.3757 14.073 58.7515 12.9674L58.197 13.2804ZM59.0457 16.8013C59.0457 18.1632 58.7557 19.3284 58.188 20.3084L58.739 20.6276C59.3721 19.5348 59.6825 18.2555 59.6825 16.8013H59.0457ZM58.1876 20.309C57.6288 21.2785 56.8031 22.0334 55.6972 22.5727L55.9763 23.145C57.1863 22.555 58.1117 21.716 58.7393 20.627L58.1876 20.309ZM55.6986 22.572C54.5951 23.1033 53.223 23.3767 51.5697 23.3767V24.0135C53.29 24.0135 54.7626 23.7294 55.9749 23.1457L55.6986 22.572ZM51.5697 23.3767H45.7051V24.0135H51.5697V23.3767ZM46.0235 23.6951V20.3929H45.3867V23.6951H46.0235ZM45.7051 20.7113H51.0336V20.0746H45.7051V20.7113ZM51.0336 20.7113C52.0458 20.7113 52.9005 20.5725 53.5829 20.2778L53.3304 19.6932C52.7548 19.9418 51.9942 20.0746 51.0336 20.0746V20.7113ZM53.5856 20.2766C54.2684 19.974 54.7891 19.5271 55.1273 18.9312L54.5735 18.6169C54.3113 19.0788 53.9028 19.4395 53.3276 19.6944L53.5856 20.2766ZM55.1266 18.9324C55.4679 18.3371 55.6298 17.6217 55.6298 16.8013H54.993C54.993 17.5391 54.8476 18.1388 54.5742 18.6157L55.1266 18.9324ZM55.6298 16.8013C55.6298 15.9806 55.4678 15.2597 55.1284 14.6519L54.5724 14.9624C54.8477 15.4553 54.993 16.0639 54.993 16.8013H55.6298ZM55.1292 14.6534C54.7859 14.0307 54.2634 13.5639 53.5777 13.2522L53.3142 13.8319C53.8864 14.092 54.3002 14.4686 54.5716 14.9609L55.1292 14.6534ZM53.5804 13.2534C52.8952 12.9342 52.0335 12.7841 51.0122 12.7841V13.4209C51.9778 13.4209 52.7387 13.5638 53.3115 13.8306L53.5804 13.2534ZM51.0122 12.7841H47.3669V13.4209H51.0122V12.7841ZM47.0485 13.1025V31.7361H47.6853V13.1025H47.0485ZM47.3669 31.4177H43.3893V32.0545H47.3669V31.4177ZM54.4531 21.9394L59.8888 31.8887L60.4476 31.5834L55.0119 21.6341L54.4531 21.9394ZM60.1682 31.4177H55.7296V32.0545H60.1682V31.4177ZM56.0101 31.5855L50.6709 21.6362L50.1098 21.9373L55.449 31.8866L56.0101 31.5855ZM50.3903 22.1051H54.7325V21.4683H50.3903V22.1051ZM60.6694 9.77886V9.46046H60.1166L60.394 9.93864L60.6694 9.77886ZM65.1616 9.77886L65.4402 9.62478L65.3494 9.46046H65.1616V9.77886ZM70.533 19.4924L70.2544 19.6464L70.3452 19.8107H70.533V19.4924ZM70.7474 19.4924V19.8107H70.9352L71.026 19.6464L70.7474 19.4924ZM76.1188 9.77886V9.46046H75.931L75.8402 9.62478L76.1188 9.77886ZM80.611 9.77886L80.8864 9.93864L81.1639 9.46046H80.611V9.77886ZM72.6236 23.545L72.3483 23.3852L72.3053 23.4593V23.545H72.6236ZM72.6236 31.7361V32.0545H72.942V31.7361H72.6236ZM68.6568 31.7361H68.3384V32.0545H68.6568V31.7361ZM68.6568 23.545H68.9752V23.4593L68.9322 23.3852L68.6568 23.545ZM60.6694 10.0972H65.1616V9.46046H60.6694V10.0972ZM64.883 9.93293L70.2544 19.6464L70.8116 19.3383L65.4402 9.62478L64.883 9.93293ZM70.533 19.8107H70.7474V19.174H70.533V19.8107ZM71.026 19.6464L76.3974 9.93293L75.8402 9.62478L70.4688 19.3383L71.026 19.6464ZM76.1188 10.0972H80.611V9.46046H76.1188V10.0972ZM80.3356 9.61907L72.3483 23.3852L72.899 23.7048L80.8864 9.93864L80.3356 9.61907ZM72.3053 23.545V31.7361H72.942V23.545H72.3053ZM72.6236 31.4177H68.6568V32.0545H72.6236V31.4177ZM68.9752 31.7361V23.545H68.3384V31.7361H68.9752ZM68.9322 23.3852L60.9448 9.61907L60.394 9.93864L68.3814 23.7048L68.9322 23.3852ZM100.48 26.8364L100.198 26.6884L100.198 26.6888L100.48 26.8364ZM96.8779 30.6961L96.7168 30.4215L96.7162 30.4219L96.8779 30.6961ZM86.5533 30.6961L86.3906 30.9698L86.3921 30.9707L86.5533 30.6961ZM82.9509 26.8257L82.6686 26.9729L82.6693 26.9743L82.9509 26.8257ZM82.9509 14.6892L82.6691 14.5411L82.6688 14.5416L82.9509 14.6892ZM86.5533 10.8188L86.3921 10.5442L86.3916 10.5446L86.5533 10.8188ZM96.8779 10.8188L96.7162 11.0931L96.7168 11.0934L96.8779 10.8188ZM100.48 14.6892L100.198 14.8364L100.199 14.8378L100.48 14.6892ZM97.028 16.544L96.7374 16.674L96.7383 16.6762L97.028 16.544ZM94.8838 13.9387L94.7105 14.2059L94.712 14.2068L94.8838 13.9387ZM88.5582 13.9387L88.7299 14.2068L88.7314 14.2059L88.5582 13.9387ZM86.4032 16.544L86.1132 16.4125L86.1129 16.4133L86.4032 16.544ZM86.4032 24.9817L86.1125 25.1116L86.1135 25.1138L86.4032 24.9817ZM88.5582 27.5869L88.385 27.8541L88.3864 27.855L88.5582 27.5869ZM94.8838 27.5869L95.0555 27.855L95.057 27.8541L94.8838 27.5869ZM97.028 24.9817L96.738 24.8502L96.7377 24.851L97.028 24.9817ZM101.491 20.7575C101.491 23.084 101.056 25.0569 100.198 26.6884L100.762 26.9845C101.678 25.2423 102.128 23.1627 102.128 20.7575H101.491ZM100.198 26.6888C99.3445 28.3197 98.184 29.5605 96.7168 30.4215L97.0391 30.9707C98.6167 30.0449 99.8577 28.7125 100.762 26.9841L100.198 26.6888ZM96.7162 30.4219C95.2544 31.2838 93.5922 31.7179 91.721 31.7179V32.3547C93.6951 32.3547 95.4709 31.8954 97.0396 30.9704L96.7162 30.4219ZM91.721 31.7179C89.8497 31.7179 88.1837 31.2838 86.7144 30.4215L86.3921 30.9707C87.9677 31.8954 89.7468 32.3547 91.721 32.3547V31.7179ZM86.716 30.4224C85.255 29.5541 84.0937 28.3091 83.2325 26.6771L82.6693 26.9743C83.5808 28.7017 84.821 30.0369 86.3906 30.9698L86.716 30.4224ZM83.2333 26.6786C82.3828 25.0468 81.9506 23.077 81.9506 20.7575H81.3138C81.3138 23.1553 81.7607 25.231 82.6686 26.9729L83.2333 26.6786ZM81.9506 20.7575C81.9506 18.4306 82.3829 16.461 83.233 14.8369L82.6688 14.5416C81.7607 16.2767 81.3138 18.3527 81.3138 20.7575H81.9506ZM83.2328 14.8373C84.0939 13.1984 85.255 11.954 86.715 11.0931L86.3916 10.5446C84.8211 11.4706 83.5805 12.8064 82.6691 14.5411L83.2328 14.8373ZM86.7144 11.0934C88.1837 10.2312 89.8497 9.79705 91.721 9.79705V9.16027C89.7468 9.16027 87.9677 9.61958 86.3921 10.5442L86.7144 11.0934ZM91.721 9.79705C93.5922 9.79705 95.2544 10.2312 96.7162 11.0931L97.0396 10.5446C95.4709 9.61957 93.6951 9.16027 91.721 9.16027V9.79705ZM96.7168 11.0934C98.1836 11.9542 99.3442 13.1983 100.198 14.8364L100.763 14.5421C99.8581 12.8065 98.6171 11.4703 97.0391 10.5442L96.7168 11.0934ZM100.199 14.8378C101.056 16.4618 101.491 18.4309 101.491 20.7575H102.128C102.128 18.3523 101.678 16.276 100.762 14.5406L100.199 14.8378ZM98.1291 20.7575C98.1291 19.0606 97.8635 17.6081 97.3177 16.4118L96.7383 16.6762C97.2361 17.7671 97.4923 19.1236 97.4923 20.7575H98.1291ZM97.3187 16.414C96.7829 15.2159 96.0306 14.2953 95.0555 13.6706L94.712 14.2068C95.5667 14.7544 96.2439 15.5706 96.7374 16.674L97.3187 16.414ZM95.057 13.6716C94.0857 13.0417 92.97 12.7305 91.721 12.7305V13.3672C92.8592 13.3672 93.8521 13.6492 94.7105 14.2059L95.057 13.6716ZM91.721 12.7305C90.4719 12.7305 89.3563 13.0417 88.385 13.6716L88.7314 14.2059C89.5899 13.6492 90.5828 13.3672 91.721 13.3672V12.7305ZM88.3864 13.6706C87.4118 14.295 86.6562 15.2151 86.1132 16.4125L86.6932 16.6755C87.1938 15.5714 87.8748 14.7546 88.7299 14.2068L88.3864 13.6706ZM86.1129 16.4133C85.5747 17.6091 85.3129 19.0611 85.3129 20.7575H85.9497C85.9497 19.1231 86.2024 17.7661 86.6936 16.6747L86.1129 16.4133ZM85.3129 20.7575C85.3129 22.4539 85.5748 23.9091 86.1125 25.1116L86.6939 24.8517C86.2024 23.7527 85.9497 22.3917 85.9497 20.7575H85.3129ZM86.1135 25.1138C86.6565 26.304 87.4118 27.223 88.385 27.8541L88.7314 27.3198C87.8748 26.7643 87.1934 25.9466 86.6929 24.8495L86.1135 25.1138ZM88.3864 27.855C89.3576 28.4772 90.4727 28.7845 91.721 28.7845V28.1477C90.582 28.1477 89.5885 27.8689 88.7299 27.3188L88.3864 27.855ZM91.721 28.7845C92.9693 28.7845 94.0843 28.4772 95.0555 27.855L94.712 27.3188C93.8534 27.8689 92.86 28.1477 91.721 28.1477V28.7845ZM95.057 27.8541C96.0306 27.2228 96.7825 26.3032 97.3184 25.1123L96.7377 24.851C96.2443 25.9474 95.5667 26.7646 94.7105 27.3198L95.057 27.8541ZM97.318 25.1131C97.8634 23.9102 98.1291 22.4544 98.1291 20.7575H97.4923C97.4923 22.3913 97.2361 23.7517 96.738 24.8502L97.318 25.1131Z" fill="#088158" mask="url(#path-4-outside-1_34_4731)"/>
<defs>
<radialGradient id="paint0_angular_34_4731" cx="0" cy="0" r="1" gradientUnits="userSpaceOnUse" gradientTransform="translate(21.0652 21.2034) rotate(90) scale(15.2713)">
<stop stop-color="#088158"/>
<stop offset="1" stop-color="#C4C4C4" stop-opacity="0"/>
</radialGradient>
</defs>
</svg>
