<svg width="17" height="16" viewBox="0 0 17 16" fill="none" xmlns="http://www.w3.org/2000/svg">
<path fill-rule="evenodd" clip-rule="evenodd" d="M2.56689 7.11125C2.56689 4.16996 4.95886 1.77799 7.90015 1.77799C10.8414 1.77799 13.2334 4.16996 13.2334 7.11125C13.2334 10.0525 10.8414 12.4445 7.90015 12.4445C4.95886 12.4445 2.56689 10.0525 2.56689 7.11125ZM16.5284 14.4825L13.5107 11.4638C14.4467 10.2603 15.0111 8.75188 15.0111 7.11101C15.0111 3.19018 11.8209 0 7.90007 0C3.97924 0 0.789062 3.19018 0.789062 7.11101C0.789062 11.0318 3.97924 14.222 7.90007 14.222C9.54094 14.222 11.0494 13.6576 12.2529 12.7216L15.2715 15.7393C15.4449 15.9127 15.6724 15.9998 15.9 15.9998C16.1275 15.9998 16.3551 15.9127 16.5284 15.7393C16.876 15.3918 16.876 14.83 16.5284 14.4825Z" fill="white"/>
</svg>
