<svg width="30" height="30" viewBox="0 0 30 30" fill="none" xmlns="http://www.w3.org/2000/svg">
<path d="M15.0002 0.699707C9.28019 0.699707 4.14279 4.08934 1.86538 9.33267C1.75945 9.59748 1.86538 9.91526 2.1302 10.0212C2.39501 10.1271 2.71279 10.0212 2.81871 9.75637C3.9839 7.10823 5.94353 4.93674 8.32686 3.55971C7.58538 4.30119 6.94982 5.20156 6.47316 6.15489C6.26131 6.5786 6.31427 7.10823 6.63205 7.426C7.10871 7.95563 8.00908 7.69082 8.2739 7.426C8.48575 7.21415 8.43279 6.94934 8.2739 6.68452C8.00908 6.26082 7.42649 6.68452 7.42649 6.68452C7.42649 6.68452 8.37982 3.87748 12.0343 2.07674C12.6698 1.91786 13.2524 1.86489 13.888 1.81193C13.3583 2.34156 12.7758 2.81823 12.0872 3.24193C12.0872 3.24193 9.65094 4.72489 9.2802 5.04267C9.06834 5.25452 9.06834 5.51934 9.22723 5.78415C9.49205 6.15489 9.86279 5.94304 9.96871 5.83711C10.3395 5.5723 12.6698 4.1423 12.6698 4.1423C14.0469 3.55971 15.4769 1.81193 15.4769 1.81193C17.8602 1.91786 20.0846 2.60637 21.9913 3.82452L20.6672 5.1486C19.8728 5.94304 19.1843 6.47267 18.4957 6.84341C16.748 7.84971 15.3709 9.33267 14.4706 11.1334C14.2587 11.5571 14.3117 12.0867 14.6295 12.4045C15.1591 12.8812 16.0065 12.6693 16.2713 12.4045L17.1717 11.5042C17.3835 11.2923 17.3835 10.9745 17.1717 10.7627C16.9598 10.5508 16.642 10.5508 16.4302 10.7627L15.4239 11.663C15.4239 11.663 16.2713 9.22674 19.0254 7.74378C19.8198 7.32008 20.5613 6.68452 21.4087 5.83711L22.8917 4.35415C23.1565 4.566 23.4213 4.77785 23.6861 4.98971L22.0443 6.63156C21.4087 7.21415 20.8261 7.74378 20.1376 8.16748L18.6017 9.06785C18.3369 9.22674 18.2309 9.54452 18.3898 9.80934C18.6017 10.1801 19.0254 10.0742 19.1313 10.0212L20.6672 9.12082C21.4617 8.64415 22.1502 8.06156 22.7857 7.426L24.4806 5.73119C24.8513 6.10193 25.1691 6.47267 25.4869 6.84341L20.8261 11.5042C19.6609 12.6693 18.7606 13.9934 18.178 15.4234C17.5424 16.9064 16.695 18.3364 15.5828 19.6604C15.3709 19.8723 15.4239 20.1901 15.6357 20.4019C15.9006 20.6667 16.2713 20.4549 16.3772 20.349C17.5424 18.9719 18.4428 17.436 19.1313 15.8471C19.6609 14.523 20.4554 13.3579 21.5676 12.2456L26.1224 7.69082C26.758 8.64415 27.2346 9.65045 27.6054 10.7097L25.222 13.146C24.2157 13.9404 23.3154 15.8471 23.3154 15.8471C22.6269 17.0123 21.6206 18.0186 20.4554 18.7071C19.1843 19.5016 17.9661 20.4019 16.9598 21.4082L15.4769 22.8912C15.265 23.103 14.9472 23.103 14.7354 22.8912C14.6295 22.7853 14.4706 22.4675 14.7354 22.1497C14.9472 21.9379 14.9472 21.6201 14.7354 21.4082C14.5235 21.1964 14.1528 21.1964 13.9939 21.4082C13.0935 22.4675 13.6761 23.3149 13.9939 23.6327C14.8413 24.4801 15.9006 23.9504 16.2183 23.6327L17.7013 22.1497C18.6546 21.1964 19.7669 20.296 20.985 19.5545C22.3091 18.7601 23.3683 17.6479 24.1628 16.3767C24.1628 16.3767 25.0102 14.629 25.9635 13.8875L27.9232 11.8749C28.135 12.8812 28.2409 13.9404 28.2409 14.9997C28.2409 21.3023 23.792 26.5986 17.9132 27.9227C18.178 27.7108 18.4428 27.5519 18.7076 27.393C18.9724 27.2341 19.0254 26.9164 18.8665 26.6516C18.7076 26.3867 18.3898 26.3338 18.125 26.4927C17.1187 27.0223 15.9006 28.2404 15.9006 28.2404C15.5828 28.2404 14.6295 28.2934 14.4706 28.2404L15.212 27.499C15.9006 26.8104 16.4832 26.3867 17.1187 26.016L18.6546 25.1156C19.502 24.639 20.1906 24.0564 20.7732 23.4208C20.7732 23.4208 21.7265 22.4675 21.7795 22.5204C21.7795 22.5204 20.7732 24.2682 20.1376 24.9567C19.9257 25.1686 19.9257 25.4864 20.1376 25.6982C20.3495 25.9101 20.6672 25.9101 20.8791 25.6982C21.6206 24.9038 22.2561 24.0564 22.7328 23.0501C22.9446 22.6264 22.8387 22.0967 22.5739 21.779C21.9913 21.3023 21.1969 21.5141 20.932 21.779L20.0317 22.6793C19.502 23.2619 18.8665 23.7386 18.125 24.1623L16.5891 25.0627C15.8476 25.4864 15.212 26.016 14.4706 26.7575L13.0935 28.0816C10.7102 27.7638 8.53871 26.7575 6.73797 25.3275L8.2739 23.7916C9.06834 22.9971 9.75686 22.4675 10.4454 22.0967C12.1932 21.0904 13.5702 19.6075 14.4706 17.8067C14.6824 17.383 14.6824 16.8534 14.2587 16.4827C14.0469 16.2708 13.1465 16.006 12.6698 16.4827L11.7695 17.383C11.2398 17.9656 10.6043 18.4423 9.86279 18.866L8.32686 19.7664C7.47945 20.243 6.79094 20.8256 6.20834 21.4612L4.56649 23.103C4.30168 22.7323 4.03686 22.4145 3.82501 22.0438L8.37982 17.489C9.59797 16.2179 10.4454 14.8938 11.028 13.5167C11.8224 11.5571 13.0406 9.75637 14.6295 8.16748L15.212 7.58489C15.5298 7.26711 15.9535 6.10193 15.212 5.36045C14.5765 4.72489 13.6232 4.72489 12.9876 5.36045L11.5046 6.84341C10.5513 7.79674 9.43908 8.69711 8.22094 9.43859C6.8439 10.286 5.78464 11.3453 5.04316 12.6164C5.04316 12.6164 4.08982 14.629 3.29538 15.1056L1.97131 16.4297C1.81242 16.006 1.75945 15.5293 1.75945 14.9997C1.75945 14.6819 1.5476 14.4701 1.22982 14.4701C0.912047 14.4701 0.700195 14.6819 0.700195 14.9997C0.700195 22.8912 7.10871 29.2997 15.0002 29.2997C22.8917 29.2997 29.3002 22.8912 29.3002 14.9997C29.3002 7.10823 22.8917 0.699707 15.0002 0.699707ZM2.07723 17.8067L3.93094 15.953C5.04316 15.0527 5.89057 13.2519 5.89057 13.2519C6.57908 12.0867 7.53242 11.1334 8.75057 10.3919C10.0217 9.59748 11.2398 8.69711 12.2461 7.69082L13.7291 6.20785C13.9409 5.996 14.2057 5.996 14.4706 6.20785C14.7883 6.47267 14.5765 6.84341 14.4706 6.94934L13.888 7.53193C12.1932 9.22674 10.922 11.1334 10.0746 13.199C9.54501 14.4701 8.75057 15.6882 7.63834 16.8534L3.29538 21.1964C2.71279 20.0842 2.28908 18.9719 2.07723 17.8067ZM5.25501 23.9504L6.94982 22.2556C7.47945 21.673 8.11501 21.1964 8.85649 20.7727L10.3924 19.8723C11.2398 19.3956 11.9283 18.813 12.5109 18.1775C12.5109 18.1775 13.4643 17.2771 13.5172 17.2771C13.5172 17.2771 11.4517 20.349 9.91575 21.1964C9.12131 21.6201 8.37982 22.2556 7.53242 23.103L5.94353 24.6919C5.73168 24.4271 5.46686 24.2153 5.25501 23.9504Z" fill="white"/>
<path d="M0.861201 11.661C0.810157 11.8255 0.759113 12.023 0.708069 12.2205C0.657025 12.385 0.861201 12.5825 1.11642 12.6154C1.16747 12.6154 1.62686 12.6483 1.72895 12.3521C1.77999 12.1876 1.83104 12.023 1.88208 11.8585C1.93313 11.6939 1.77999 11.4964 1.52477 11.4635C1.21851 11.3648 0.912245 11.4635 0.861201 11.661Z" fill="white"/>
</svg>
