<svg width="23" height="22" viewBox="0 0 23 22" fill="none" xmlns="http://www.w3.org/2000/svg">
<path d="M11.789 12.8335H12.7057C13.714 12.8335 14.539 12.0085 14.539 11.0002V1.8335H6.289C4.914 1.8335 3.71318 2.59432 3.08984 3.71265" stroke="#292D32" stroke-width="1.5" stroke-linecap="round" stroke-linejoin="round"/>
<path d="M2.62256 15.5835C2.62256 17.1052 3.85089 18.3335 5.37256 18.3335H6.28923C6.28923 17.3252 7.11423 16.5002 8.12256 16.5002C9.13089 16.5002 9.95589 17.3252 9.95589 18.3335H13.6226C13.6226 17.3252 14.4476 16.5002 15.4559 16.5002C16.4642 16.5002 17.2892 17.3252 17.2892 18.3335H18.2059C19.7276 18.3335 20.9559 17.1052 20.9559 15.5835V12.8335H18.2059C17.7017 12.8335 17.2892 12.421 17.2892 11.9168V9.16683C17.2892 8.66266 17.7017 8.25016 18.2059 8.25016H19.3884L17.8209 5.50934C17.4909 4.94101 16.8859 4.5835 16.2259 4.5835H14.5392V11.0002C14.5392 12.0085 13.7142 12.8335 12.7059 12.8335H11.7892" stroke="#292D32" stroke-width="1.5" stroke-linecap="round" stroke-linejoin="round"/>
<path d="M8.1224 20.1667C9.13492 20.1667 9.95573 19.3459 9.95573 18.3333C9.95573 17.3208 9.13492 16.5 8.1224 16.5C7.10987 16.5 6.28906 17.3208 6.28906 18.3333C6.28906 19.3459 7.10987 20.1667 8.1224 20.1667Z" stroke="#292D32" stroke-width="1.5" stroke-linecap="round" stroke-linejoin="round"/>
<path d="M15.4559 20.1667C16.4684 20.1667 17.2892 19.3459 17.2892 18.3333C17.2892 17.3208 16.4684 16.5 15.4559 16.5C14.4434 16.5 13.6226 17.3208 13.6226 18.3333C13.6226 19.3459 14.4434 20.1667 15.4559 20.1667Z" stroke="#292D32" stroke-width="1.5" stroke-linecap="round" stroke-linejoin="round"/>
<path d="M20.9557 11V12.8333H18.2057C17.7016 12.8333 17.2891 12.4208 17.2891 11.9167V9.16667C17.2891 8.6625 17.7016 8.25 18.2057 8.25H19.3882L20.9557 11Z" stroke="#292D32" stroke-width="1.5" stroke-linecap="round" stroke-linejoin="round"/>
<path d="M2.62256 7.3335H8.12256" stroke="#292D32" stroke-width="1.5" stroke-linecap="round" stroke-linejoin="round"/>
<path d="M2.62256 10.0835H6.28923" stroke="#292D32" stroke-width="1.5" stroke-linecap="round" stroke-linejoin="round"/>
<path d="M2.62256 12.8335H4.45589" stroke="#292D32" stroke-width="1.5" stroke-linecap="round" stroke-linejoin="round"/>
</svg>
